<?xml version="1.0" encoding="UTF-8" standalone="no"?>
<!-- Created with Inkscape (http://www.inkscape.org/) -->

<svg
   xmlns:dc="http://purl.org/dc/elements/1.1/"
   xmlns:cc="http://creativecommons.org/ns#"
   xmlns:rdf="http://www.w3.org/1999/02/22-rdf-syntax-ns#"
   xmlns:svg="http://www.w3.org/2000/svg"
   xmlns="http://www.w3.org/2000/svg"
   xmlns:sodipodi="http://sodipodi.sourceforge.net/DTD/sodipodi-0.dtd"
   xmlns:inkscape="http://www.inkscape.org/namespaces/inkscape"
   width="251.44882"
   height="251.24149"
   viewBox="0 0 66.529166 66.474311"
   version="1.1"
   id="svg15394"
   inkscape:version="0.92.0 r15299"
   sodipodi:docname="inter.svg">
  <defs
     id="defs15388" />
  <sodipodi:namedview
     id="base"
     pagecolor="#ffffff"
     bordercolor="#666666"
     borderopacity="1.0"
     inkscape:pageopacity="0.0"
     inkscape:pageshadow="2"
     inkscape:zoom="2.1384883"
     inkscape:cx="124.72441"
     inkscape:cy="124.62074"
     inkscape:document-units="mm"
     inkscape:current-layer="layer1"
     showgrid="false"
     fit-margin-top="0"
     fit-margin-left="0"
     fit-margin-right="0"
     fit-margin-bottom="0"
     units="px"
     inkscape:window-width="1280"
     inkscape:window-height="744"
     inkscape:window-x="-4"
     inkscape:window-y="-4"
     inkscape:window-maximized="1" />
  <metadata
     id="metadata15391">
    <rdf:RDF>
      <cc:Work
         rdf:about="">
        <dc:format>image/svg+xml</dc:format>
        <dc:type
           rdf:resource="http://purl.org/dc/dcmitype/StillImage" />
        <dc:title></dc:title>
      </cc:Work>
    </rdf:RDF>
  </metadata>
  <g
     inkscape:label="Layer 1"
     inkscape:groupmode="layer"
     id="layer1"
     transform="translate(23.534529,-274.36528)">
    <g
       id="g15504"
       transform="matrix(0.25963807,0,0,0.25963807,-17.159485,252.08007)"
       style="stroke-width:3.85151529">
      <path
         inkscape:connector-curvature="0"
         id="path68"
         style="fill:#ffffff;fill-opacity:1;fill-rule:nonzero;stroke:none;stroke-width:1.358729"
         d="M 118.1523,340.8396 H 88.690771 C 30.070046,334.11178 -16.512849,287.72432 -23.534529,229.19319 V 198.42144 C -16.538239,140.10092 29.728565,93.840827 88.048721,86.850878 h 30.745639 c 59.17813,7.092248 105.94235,54.606832 111.87112,114.130312 v 25.65225 C 224.71554,286.36859 177.63242,334.0137 118.1523,340.8396 M 103.42912,88.493415 c -69.199469,0 -125.319359,56.118125 -125.319359,125.314085 0,69.19982 56.11989,125.3176 125.319359,125.3176 69.19068,0 125.31055,-56.11778 125.31055,-125.3176 0,-69.19596 -56.11987,-125.314085 -125.31055,-125.314085" />
      <path
         inkscape:connector-curvature="0"
         id="path70"
         style="fill:#c20c18;fill-opacity:1;fill-rule:nonzero;stroke:none;stroke-width:1.358729"
         d="m 103.42912,339.1251 c -69.199474,0 -125.319359,-56.11778 -125.319359,-125.3176 0,-69.19596 56.119885,-125.314085 125.319359,-125.314085 69.19066,0 125.31055,56.118125 125.31055,125.314085 0,69.19982 -56.11989,125.3176 -125.31055,125.3176 m 0,-248.073679 c -67.79436,0 -122.763129,54.970529 -122.763129,122.756079 0,67.78589 54.968769,122.76525 122.763129,122.76525 67.78556,0 122.75644,-54.97936 122.75644,-122.76525 0,-67.78555 -54.97088,-122.756079 -122.75644,-122.756079" />
      <path
         inkscape:connector-curvature="0"
         id="path72"
         style="fill:#ffffff;fill-opacity:1;fill-rule:nonzero;stroke:none;stroke-width:1.358729"
         d="m 103.42912,336.57275 c -67.79436,0 -122.763129,-54.97936 -122.763129,-122.76525 0,-67.78553 54.968769,-122.756079 122.763129,-122.756079 67.78556,0 122.75644,54.970549 122.75644,122.756079 0,67.78589 -54.97088,122.76525 -122.75644,122.76525 m 11.0938,-19.12761 c -0.34678,0 -0.70802,0.0166 -1.08373,0.049 -4.46299,0.393 -6.53803,2.82081 -6.16091,7.17338 0.35419,4.07564 2.43734,6.10588 6.27098,6.10588 0.34254,0 0.69814,-0.0162 1.06891,-0.0483 4.51732,-0.40005 6.56096,-2.80529 6.17503,-7.24359 -0.35244,-4.04248 -2.43665,-6.03638 -6.27028,-6.03638 m -27.813699,9.20291 c -0.18945,2.18405 1.63335,3.71547 5.17701,4.02274 0.37218,0.0328 0.73166,0.049 1.07773,0.049 4.03931,0 6.26252,-2.23238 6.63752,-6.62586 0.35454,-3.96841 -1.71908,-6.27698 -5.93125,-6.64705 -0.41522,-0.0363 -0.81386,-0.0543 -1.19415,-0.0543 -3.50203,0 -5.5171,1.51024 -5.73723,4.06117 -0.21908,2.45251 1.54058,4.14867 4.73851,4.4242 0.22436,0.0197 0.44238,0.03 0.65334,0.03 1.37019,0 2.45816,-0.41945 3.22898,-1.26329 l -0.0388,0.42438 c -0.20637,2.33399 -0.86466,3.37856 -2.41652,3.37856 -0.10937,0 -0.22296,-0.005 -0.34114,-0.0155 -1.15782,-0.0946 -1.68945,-0.53481 -1.67534,-1.4157 l -4.17865,-0.3683 m -14.529163,-9.31157 -2.513888,8.76088 4.108807,1.17864 3.543644,-12.35887 -3.66994,-1.04564 c -1.594908,0.42475 -3.143605,0.65265 -4.619271,0.73873 l -0.943689,3.28401 c 1.391015,-0.0229 2.743557,-0.21237 4.094337,-0.55775 m 61.475772,6.29426 -4.0386,1.16311 c 0.43039,1.50283 1.69473,2.32657 3.6209,2.32657 0.78352,0 1.67569,-0.13617 2.66666,-0.41805 4.54694,-1.31197 6.1662,-4.31376 4.84716,-8.9101 -0.8502,-2.96333 -2.69558,-4.48098 -5.36434,-4.48098 -0.78458,0 -1.64077,0.13123 -2.56364,0.39546 -4.09433,1.17898 -5.82401,3.49638 -5.03625,6.2223 0.50623,1.78399 1.90253,2.76437 3.87279,2.76437 0.65123,0 1.3649,-0.10726 2.13043,-0.32774 1.63301,-0.46284 2.70862,-1.31198 3.18205,-2.53823 l 0.11571,0.40887 c 0.69286,2.41193 0.37712,3.62938 -1.35784,4.13279 -0.32596,0.0914 -0.61277,0.13793 -0.86253,0.13793 -0.61067,0 -1.00085,-0.27975 -1.2125,-0.8763 M 103.42912,114.91862 c -54.609291,0 -98.8945428,44.28347 -98.8945428,98.88888 0,54.6093 44.2852518,98.89279 98.8945428,98.89279 54.60931,0 98.88396,-44.28349 98.88396,-98.89279 0,-54.60541 -44.27465,-98.88888 -98.88396,-98.88888 m 117.1843,89.8994 -12.8291,0.44909 0.39123,11.07827 2.78941,-0.0981 -0.22824,-6.69785 10.02771,-0.35101 -0.15101,-4.38044 m -225.8222178,6.73841 -0.140398,4.21887 0.189437,0.009 c 0.07761,0.003 0.154523,0.004 0.229658,0.004 2.884665,0 4.11092499,-1.96321 4.25590999,-6.25121 0.165106,-4.62776 -1.24882599,-7.10318 -3.81881299,-7.1942 -0.04551,-0.002 -0.09067,-0.002 -0.135823,-0.002 -1.081265,0 -2.0186,0.44416 -2.653595,1.24424 -0.801868,1.04035 -1.147228,2.38586 -1.563157,3.97547 -0.58985,2.2828 -0.74295,3.36338 -1.6129002,3.36373 -0.0124,0 -0.0251,-2.6e-4 -0.0377,-7.9e-4 -0.5895,-0.0194 -0.91935,-0.69143 -0.87913,-1.93675 0.0536,-1.53705 0.54575,-2.34138 1.3878302,-2.34138 0.0162,0 0.0325,2.7e-4 0.049,10e-4 l 0.0561,0.004 0.14041,-4.00684 -0.14923,-0.009 c -0.0564,-0.002 -0.1128902,-0.003 -0.1682802,-0.003 -2.47932,0 -3.69252,1.99638 -3.83857,6.10763 -0.14887,4.32614 1.14758,6.60154 3.65443,6.68762 0.0511,0.002 0.10229,0.002 0.15274,0.002 0.9451002,0 1.7402612,-0.31115 2.3364562,-0.93062 1.038578,-1.06822 1.415687,-2.77003 1.996368,-5.03307 0.448735,-1.73497 0.608889,-2.64091 1.429801,-2.64091 0.01341,0 0.02682,2.6e-4 0.04022,7.9e-4 0.675573,0.0247 1.091138,0.82268 1.04563,2.21403 -0.0635,1.72755 -0.539749,2.56575 -1.511299,2.56575 -0.02011,0 -0.04021,-2.7e-4 -0.06068,-0.001 -0.126296,-0.004 -0.252591,-0.0247 -0.39441,-0.0473 m 2.680413,-15.28339 -0.542225,3.83116 3.00178699,0.4212 0.535163,-3.8315 -2.99472499,-0.42086 m 205.4094598,-15.66228 1.04386,4.18395 2.49802,0.44377 1.61219,6.46645 -2.0193,1.49258 1.16311,4.65067 10.91352,-9.259 -1.15604,-4.63129 -14.05536,-3.34713 M -2.2373488,170.39959 c -2.247548,0 -4.013903,1.76953 -5.232745,5.3079 -1.666535,4.8507 -0.212379,8.33295 3.920766,9.75398 0.785988,0.27021 1.546579,0.40354 2.2726,0.40354 2.728021,0 4.964287,-1.88665 6.205706,-5.4945 1.594916,-4.6175 0.966618,-7.45242 -2.154058,-8.86284 l -1.477085,4.29824 c 1.343738,0.70696 1.759303,1.88385 1.24214,3.4015 -0.515063,1.50953 -1.56740001,2.29761 -3.01766701,2.29761 -0.54151499,0 -1.13840999,-0.10968 -1.78399899,-0.33301 -2.475441,-0.85266 -3.433231,-2.51918 -2.710386,-4.60833 0.39934,-1.14898 1.098544,-1.73179 2.11067,-1.73179 0.14393,0 0.294211,0.0117 0.450489,0.0353 l 1.47708499,-4.28415 c -0.45084499,-0.1224 -0.88547599,-0.18345 -1.30351599,-0.18345 M 202.6373,159.61907 l -4.99112,9.03252 2.64902,4.96994 11.33087,-6.02406 -1.94027,-3.63324 -7.59954,4.04177 4.8648,-9.1888 -2.55411,-4.79637 -11.33122,6.02263 1.94028,3.63325 7.63129,-4.05764 m -195.4381988,6.67491 -1.641825,3.50342 2.750609,1.2806 1.63336,-3.50343 -2.742144,-1.28059 m -0.871705,-18.03223 -2.380551,3.677 10.7554898,6.98533 2.389367,-3.67701 -10.7643058,-6.98532 M 186.74676,134.32311 c -1.4245,0 -2.8155,0.56835 -4.12255,1.70429 -3.28402,2.85219 -3.29283,6.40293 0.0459,10.25032 2.11666,2.4331 4.22487,3.65266 6.2671,3.65266 1.40017,0 2.76895,-0.57326 4.08834,-1.72155 3.29284,-2.86279 3.28401,-6.48901 -0.11748,-10.40096 -2.02354,-2.3248 -4.12643,-3.48476 -6.16127,-3.48476 m -169.514694,0.34998 -3.770135,3.90842 9.232902,8.91362 2.859262,-2.96119 -6.222296,-6.00497 10.127549,1.95401 3.920771,-4.05233 -9.2329,-8.91367 -2.859265,2.96334 6.190895,5.97853 -10.246783,-1.78576 m 158.226134,-13.19778 -7.89622,10.11167 3.44909,2.70017 7.90295,-10.11342 -3.45582,-2.69842 m -136.876728,-1.79988 5.312133,8.49457 3.717215,-2.32307 -5.313539,-8.49419 4.05589,-2.52939 -1.494721,-2.38762 -11.816998,7.38542 1.494718,2.38935 4.045302,-2.53507 m 116.941248,-9.75535 c -2.32622,0 -4.23298,1.21956 -5.53862,3.58036 -1.91735,3.46107 -0.68263,6.89785 3.5366,9.23996 1.99074,1.10135 3.68372,1.6626 5.11917,1.6626 1.64606,0 2.95382,-0.73729 3.98567,-2.24327 l -3.97368,-2.20525 c -0.56304,0.72566 -1.24036,1.08869 -1.99779,1.08869 -0.49247,0 -1.01917,-0.15348 -1.57019,-0.46073 -1.91772,-1.05937 -2.31918,-2.86986 -1.09999,-5.07153 0.86785,-1.572 1.99074,-2.36997 3.23464,-2.36997 0.56902,0 1.16347,0.16687 1.77024,0.50341 1.21743,0.67171 1.63512,1.61571 1.22449,2.81728 l 3.96804,2.19642 c 1.26683,-2.69807 -0.0314,-5.16997 -3.91195,-7.32225 -1.71272,-0.95003 -3.30977,-1.41572 -4.74663,-1.41572 m -90.116384,-6.78038 -10.678216,4.10138 4.597747,11.97821 10.929397,-4.19591 -1.005408,-2.61233 -6.91515,2.65604 -0.894636,-2.32974 6.166199,-2.36816 -0.973672,-2.54214 -6.167966,2.36821 -0.738714,-1.91208 6.671722,-2.56117 -0.991303,-2.58231 m 75.218574,12.84323 -2.80317,-14.03808 -4.61399,-1.23334 -9.74336,10.67153 4.16489,1.1194 1.59456,-1.97206 6.44348,1.72793 0.33161,2.48249 4.62598,1.24213 M 86.932881,98.168684 c -0.84596,0 -1.86866,0.17992 -3.12421,0.40114 l -7.24322,1.277052 2.22249,12.639664 4.2351,-0.74754 -0.87207,-4.95052 2.66312,-0.47025 c 0.30198,-0.0529 0.55881,-0.0854 0.77823,-0.0854 0.65969,0 0.98354,0.29494 1.19521,1.22064 l 0.4318,1.73319 c 0.14887,0.62795 0.3228,1.19308 0.61384,1.70532 l 4.38396,-0.77575 c -0.44731,-0.89818 -0.71578,-1.59456 -0.84913,-2.03837 l -0.58949,-2.0507 c -0.38912,-1.31831 -1.08303,-1.83335 -2.44757,-1.83335 -0.28963,0 -0.60925,0.0233 -0.96274,0.0667 1.97203,-0.51224 2.92277,-1.85949 2.64019,-3.48932 -0.19614,-1.12431 -0.81738,-1.973439 -1.66475,-2.35059 -0.40887,-0.179532 -0.87454,-0.25188 -1.41076,-0.25188 m 18.169469,2.93582 5.48392,8.67872 5.6261,0.41556 0.73131,-13.148377 -4.11022,-0.0085 -0.66639,8.608127 -5.73652,-8.771467 -5.4296,-0.03351 -0.0318,12.957177 4.11021,-0.0543 0.0229,-8.6434 m 9.03181,227.12892 c -1.58714,0 -2.18687,-1.20861 -2.43169,-3.90454 -0.24378,-2.84375 0.28257,-4.2104 2.01224,-4.35257 0.0903,-0.008 0.17816,-0.012 0.26282,-0.012 1.52965,0 2.16289,1.33737 2.40877,4.13843 0.24236,2.74179 -0.2593,3.96804 -1.94875,4.11727 -0.10477,0.009 -0.20602,0.0134 -0.30339,0.0134 M 93.166011,323.575 c -0.0596,0 -0.11959,-0.002 -0.17991,-0.007 -1.11585,-0.0949 -1.94028,-1.06152 -1.84573,-2.1209 0.0893,-1.02201 0.9659,-1.79283 2.00024,-1.79283 0.0632,0 0.12665,0.003 0.19086,0.008 1.09996,0.0931 1.90182,1.05269 1.80692,2.13854 -0.0811,1.00259 -0.93063,1.77413 -1.97238,1.77413 m 40.645999,-3.82448 c -0.883,0 -1.67852,-0.55879 -1.92299,-1.40017 -0.29809,-1.04563 0.32985,-2.14559 1.40511,-2.45957 0.18662,-0.0533 0.37431,-0.0787 0.55775,-0.0787 0.86924,0 1.65699,0.56763 1.91063,1.42946 0.29105,1.02271 -0.29809,2.12266 -1.37724,2.42957 -0.19191,0.0536 -0.38452,0.0794 -0.57326,0.0794 m 76.65087,-129.84585 -1.02273,-4.10138 5.06132,0.98247 -4.03859,3.11891 M 187.3493,146.13063 c -0.91191,0 -1.77622,-0.4632 -2.58126,-1.38997 -1.53141,-1.75928 -1.3208,-3.52778 0.65263,-5.24331 1.01954,-0.88689 2.02953,-1.32011 2.96369,-1.32011 0.91547,0 1.75825,0.4159 2.46591,1.22873 1.54024,1.77552 1.27355,3.68936 -0.83149,5.51568 -0.92533,0.80573 -1.81821,1.20898 -2.66948,1.20898 m -52.08199,-36.8773 -4.07176,-1.09291 3.30165,-3.94898 0.77011,5.04189 m -53.579539,-5.06127 -0.44732,-2.52944 2.4123,-0.42473 c 0.24588,-0.0423 0.46531,-0.0649 0.66005,-0.0649 0.71966,0 1.10101,0.30657 1.22414,1.03684 0.15768,0.8791 -0.30551,1.35784 -1.43688,1.55788 l -2.41229,0.42439" />
      <path
         inkscape:connector-curvature="0"
         id="path74"
         style="fill:#c20c18;fill-opacity:1;fill-rule:nonzero;stroke:none;stroke-width:1.358729"
         d="m 103.42912,312.70029 c -54.609291,0 -98.8945428,-44.2835 -98.8945428,-98.89279 0,-54.60542 44.2852518,-98.88891 98.8945428,-98.88891 54.60931,0 98.88396,44.28349 98.88396,98.88891 0,54.60929 -44.27465,98.89279 -98.88396,98.89279 m 0,-195.22512 c -53.195355,0 -96.3312618,43.14156 -96.3312618,96.33338 0,53.19324 43.1359068,96.33127 96.3312618,96.33127 53.18655,0 96.33127,-43.13803 96.33127,-96.33127 0,-53.19182 -43.14472,-96.33338 -96.33127,-96.33338" />
      <path
         inkscape:connector-curvature="0"
         id="path76"
         style="fill:#ffffff;fill-opacity:1;fill-rule:nonzero;stroke:none;stroke-width:1.358729"
         d="m 103.42912,310.13981 c -53.195355,0 -96.3312618,-43.13802 -96.3312618,-96.33126 0,-53.19182 43.1359068,-96.33338 96.3312618,-96.33338 53.18655,0 96.33127,43.14156 96.33127,96.33338 0,53.19324 -43.14472,96.33126 -96.33127,96.33126 m 0,-190.10665 c -51.781419,0 -93.7789088,41.99396 -93.7789088,93.77539 0,51.77931 41.9974898,93.76834 93.7789088,93.76834 51.78143,0 93.7701,-41.98903 93.7701,-93.76834 0,-51.78143 -41.98867,-93.77539 -93.7701,-93.77539" />
      <path
         inkscape:connector-curvature="0"
         id="path78"
         style="fill:#c20c18;fill-opacity:1;fill-rule:nonzero;stroke:none;stroke-width:1.358729"
         d="m 103.42912,307.57689 c -51.781419,0 -93.7789088,-41.98903 -93.7789088,-93.76834 0,-51.78143 41.9974898,-93.77539 93.7789088,-93.77539 51.78143,0 93.7701,41.99396 93.7701,93.77539 0,51.77931 -41.98867,93.76834 -93.7701,93.76834 M 99.704141,295.2727 c 2.570329,4.25944 6.269909,5.39115 6.269909,5.39115 0,0 3.53661,-1.13171 6.19267,-5.39115 0,0 1.36666,2.17734 6.26109,2.17734 0,0 8.68363,-0.64558 8.68363,-11.33122 0,0 -2.73473,2.57035 -6.11364,2.57035 0,0 -4.90325,-0.32316 -4.90325,-7.31556 v -19.53542 l 0.25188,-0.0215 3.96805,-0.46463 3.81917,-0.58066 3.65936,-0.69143 3.47944,-0.78141 -0.10689,0.17674 -0.45613,0.66817 -0.52635,0.63499 -0.57362,0.62124 -0.63677,0.58244 -0.6999,0.53305 -0.77717,0.51047 -0.85619,0.45649 -0.95074,0.40146 -1.04563,0.35278 -1.14548,0.29105 -1.26682,0.21237 -1.38924,0.14041 -1.5247,0.0384 v 2.79048 h -2.78201 v 12.69753 h 2.77671 l 0.16087,2.78235 0.16687,-0.009 0.34537,-0.0385 0.54222,-0.0473 0.73836,-0.0949 0.88794,-0.11043 1.04352,-0.1651 1.20367,-0.2032 1.31199,-0.25965 1.42981,-0.32279 1.52435,-0.38417 1.6263,-0.45614 1.68063,-0.5334 1.7526,-0.60537 1.80165,-0.70696 1.8228,-0.79447 1.85243,-0.89464 1.86303,-0.99836 1.84714,-1.12465 1.81398,-1.24002 1.79106,-1.37724 1.73706,-1.50707 1.67324,-1.64182 1.58785,-1.79106 1.47708,-1.94204 1.35962,-2.11208 1.21743,-2.25601 1.08585,-2.41936 0.90169,-2.60137 0.71404,-2.74215 0.53515,-2.92277 0.32281,-3.08892 0.005,-0.15981 0.89006,-0.57008 1.75261,-1.18745 1.61043,-1.17017 1.47885,-1.12466 1.34372,-1.08408 1.20862,-1.02976 1.07739,-0.95779 0.95074,-0.90347 0.83324,-0.80856 0.68228,-0.71614 0.57363,-0.60148 0.45613,-0.50165 0.32985,-0.38241 0.19826,-0.24236 0.0931,-0.1263 -0.46319,-3.90489 -3.44204,4.38397 3.44204,-4.38397 -6.75041,-5.30331 -3.34575,-0.0667 3.34575,0.0667 -1.64217,-1.29293 -1.70358,1.22625 -2.56997,1.77906 -2.55411,1.64182 -0.15876,0.0938 -0.66568,-1.39735 -0.89641,-1.62277 -1.03682,-1.66124 -1.18605,-1.67004 -1.36137,-1.68945 -1.50672,-1.67006 -1.69826,-1.68063 -1.87008,-1.65947 -2.06656,-1.6369 -2.27014,-1.59983 -2.4839,-1.56668 -2.69452,-1.52437 -2.92276,-1.48236 -3.15066,-1.40512 -3.40148,-1.35608 -3.64031,-1.28763 -3.92784,-1.19839 -0.76235,2.67158 h -2.78941 v 21.93748 h 2.7954 l -1.05692,2.57247 0.005,0.0123 0.11924,0.0508 0.20356,0.0914 0.29139,0.12099 0.34537,0.17357 0.4318,0.20356 0.47166,0.25436 0.54398,0.28398 0.58068,0.32138 0.62794,0.3489 0.65969,0.40533 0.69286,0.42968 0.70697,0.47026 0.72283,0.49459 0.73873,0.53517 0.73836,0.57714 0.73836,0.60184 0.7299,0.62441 0.69991,0.66853 0.69144,0.69108 0.66112,0.71402 0.61947,0.74719 0.59619,0.77012 0.0515,0.0758 -0.81174,0.19931 -2.16994,0.48578 -2.11385,0.4177 -2.03516,0.34571 -1.9558,0.2981 -1.87714,0.23671 -1.77729,0.1965 -1.67358,0.14041 -0.33761,0.0236 v -57.9702 l 3.00954,0.357 3.03319,0.4632 1.65664,0.30656 -0.0141,0.0265 -0.38595,0.74577 -0.32949,0.74718 -0.28962,0.74401 -0.25259,0.74013 -0.19651,0.72813 -0.1404,0.72284 -0.0945,0.71897 -0.0547,0.70696 -0.008,0.68792 0.0243,0.68228 0.10019,0.6685 0.11218,0.64912 0.16299,0.62089 0.20532,0.61594 0.23495,0.58033 0.28434,0.55457 0.29633,0.53515 0.34748,0.50342 0.36125,0.47025 0.39123,0.44909 0.42651,0.4191 0.43144,0.3824 0.44909,0.35278 0.48613,0.31398 0.4946,0.28398 0.51046,0.25436 0.51929,0.21237 0.53517,0.18416 0.55597,0.13688 0.55774,0.11571 0.5581,0.0579 0.2159,0.0106 0.21731,0.037 0.2667,0.0279 0.2981,0.0229 0.32278,0.004 0.36161,-0.004 0.39088,-0.0317 0.43531,-0.0667 0.43851,-0.0893 0.45438,-0.13511 0.48931,-0.1718 0.48613,-0.21237 0.48753,-0.25436 0.49495,-0.30338 0.50341,-0.36161 0.49459,-0.40533 0.47908,-0.44733 0.4632,-0.50692 0.46461,-0.55777 0.44555,-0.61417 0.43533,-0.65935 0.41557,-0.72635 0.39123,-0.77013 0.38594,-0.85266 0.3683,-0.90346 0.34573,-0.97014 0.33161,-1.04388 0.0977,-0.35418 0.93838,0.40853 1.95087,0.91404 1.83656,0.94402 1.72085,0.93841 1.6122,0.95071 1.49119,0.93171 1.39806,0.91051 1.27388,0.89289 1.17193,0.87522 1.05939,0.82127 0.95074,0.77894 0.85796,0.7225 0.73695,0.6632 0.63675,0.60186 0.52777,0.51399 0.42474,0.43321 0.32808,0.34925 0.21909,0.24023 0.12628,0.14041 0.007,0.0191 0.84207,1.01424 h 5.82966 l 0.8262,-0.91582 1.61043,-1.76671 1.3755,-1.51377 -1.02096,-1.75965 -0.39476,-0.70344 -0.35278,-0.77718 -0.32982,-0.82619 -0.31398,-0.88231 -0.29987,-0.92463 -0.24376,-0.97719 -0.23354,-1.00154 -0.21237,-1.03329 -0.18946,-1.0615 -0.1665,-1.07175 -0.14041,-1.08619 -0.12629,-1.08727 -0.0861,-1.09149 -0.0857,-1.08056 -0.0632,-1.06822 -0.0543,-1.04562 -0.0335,-1.03328 -0.0208,-0.99836 v -1.91031 l 0.007,-0.87169 0.0141,-0.83503 0.0247,-0.77894 0.0332,-0.71578 0.0212,-0.64735 0.0402,-0.57361 0.0317,-0.51048 0.0229,-0.4124 0.0332,-0.34218 0.0141,-0.23143 0.0155,-0.14571 -0.0155,-0.0314 -1.91592,-2.89985 -0.84807,2.64549 0.84807,-2.64549 -5.69594,-1.851 -3.10515,1.00364 3.10515,-1.00364 -1.91066,-0.61562 -1.19449,1.61926 -4.20301,5.72381 -0.21414,-0.0977 -2.30892,-1.00364 -1.31659,-0.53307 0.42086,-0.57748 0.47026,-0.65265 0.45615,-0.60147 0.44027,-0.57363 0.44025,-0.52282 0.41064,-0.49142 0.39123,-0.44732 0.36124,-0.41557 0.34751,-0.36511 0.30338,-0.33127 0.26846,-0.27552 0.23495,-0.23847 0.19827,-0.19299 0.15628,-0.14568 0.11041,-0.10195 0.054,-0.0625 0.007,0.008 -0.007,-0.009 -2.6e-4,8e-4 -1.84257,-2.06941 h 2.78519 v -6.4329 h -2.78835 l -1.52366,-2.32091 0.0314,-0.0282 -0.0177,0.0124 -0.0455,0.0229 -0.0473,0.0314 -0.079,0.0406 -0.0861,0.0473 -0.11041,0.0543 -0.11749,0.0579 -0.14217,0.0632 -0.14039,0.0685 -0.18239,0.0543 -0.17887,0.0667 -0.19824,0.0667 -0.1965,0.0667 -0.21943,0.0702 -0.21907,0.0561 -0.25119,0.0508 -0.25259,0.0579 -0.526,0.072 -0.28256,0.0264 -0.29139,0.0282 -0.29105,0.0155 h -0.31398 l -0.30514,-0.0155 -0.32279,-0.0247 -0.33691,-0.0385 -0.33867,-0.0547 -0.34572,-0.0667 -0.28434,-0.0603 -0.0699,-0.0501 -0.33866,-0.23496 -0.41558,-0.29139 -0.49494,-0.35418 -0.57361,-0.38947 -0.64383,-0.44202 -0.6999,-0.47202 -0.74719,-0.51401 -0.79305,-0.53162 -0.84737,-0.56481 -0.88935,-0.58596 -0.92639,-0.59654 -0.93663,-0.59833 -0.95603,-0.61206 -0.99131,-0.61207 -0.99623,-0.61066 -1.00014,-0.60853 -0.998,-0.58421 -1.00366,-0.56691 -0.9839,-0.55423 -0.96695,-0.52281 -0.9578,-0.49459 -0.93486,-0.46319 -0.90347,-0.41241 -0.8964,-0.38593 -0.87207,-0.32421 -0.83326,-0.28786 -0.82268,-0.21943 -0.8509,-0.14923 -0.86324,-0.0596 v 2.77743 h -2.78201 v 12.70105 h 2.77777 l -0.85901,2.64478 -0.0261,-0.008 0.0247,0.0123 10e-4,-0.005 0.037,0.0116 0.10372,0.0438 0.15769,0.0543 0.18768,0.079 0.25118,0.11396 0.26634,0.11394 0.30727,0.14923 0.33655,0.18061 0.37041,0.18768 0.37712,0.21415 0.40182,0.24554 0.41558,0.26493 0.41591,0.28258 0.4244,0.30867 0.42651,0.34748 0.43144,0.34891 0.40711,0.38593 0.41557,0.41594 0.39476,0.42438 0.0656,0.0779 -0.58562,-0.10936 -1.7667,-0.3196 -1.7138,-0.27341 -1.6263,-0.25259 -1.5628,-0.20707 -1.29752,-0.16653 v -19.22925 c 0,-6.99277 4.90325,-7.31202 4.90325,-7.31202 3.37891,0 6.11363,2.56997 6.11363,2.56997 0,-10.68882 -8.68362,-11.33088 -8.68362,-11.33088 -4.89443,0 -6.26109,2.17031 -6.26109,2.17031 -2.65607,-4.2598 -6.19267,-5.38763 -6.19267,-5.38763 0,0 -3.69958,1.12783 -6.269909,5.38763 0,0 -1.36632,-2.17031 -6.26957,-2.17031 0,0 -8.76089,0.64206 -8.76089,11.33088 0,0 2.73297,-2.56997 6.11188,-2.56997 0,0 4.8962,0.31925 4.8962,7.31202 v 19.00201 l -1.97979,0.19332 -3.73309,0.51575 -3.59092,0.63149 -3.27979,0.7306 0.10549,-0.14357 0.48754,-0.57928 0.51752,-0.55243 0.56691,-0.52282 0.61208,-0.48755 0.65263,-0.46319 0.70698,-0.41206 0.77892,-0.3704 0.81739,-0.33514 0.91052,-0.27693 0.97542,-0.22472 1.0594,-0.15946 1.15464,-0.10372 -0.12876,-2.77634 h 2.77708 V 148.2863 h -2.78094 l -0.46391,-2.74673 -0.15627,0.0265 -0.31575,0.0667 -0.47871,0.0949 -0.65088,0.14887 -0.81069,0.1965 -0.93485,0.25612 -1.06151,0.29846 -1.17898,0.36477 -1.28729,0.4124 -1.35961,0.48754 -1.4545,0.56127 -1.50001,0.62794 -1.56281,0.70521 -1.61924,0.77752 -1.626315,0.87877 -1.650642,0.95602 -1.658059,1.04388 -1.650641,1.15252 -1.633365,1.24036 -1.594551,1.35926 -1.556107,1.45274 -1.492952,1.58079 -1.413928,1.69969 -1.327856,1.82103 -1.233313,1.94028 -1.108784,2.06305 -0.966608,2.19991 -0.83326,2.3174 -0.659691,2.45074 -0.494599,2.5894 -0.299865,2.70685 -0.0032,0.09 -0.922509,0.61667 -2.090915,1.51729 -1.987907,1.52787 -1.870075,1.54059 -1.775174,1.52789 -1.666521,1.52787 -1.556104,1.50532 -1.477084,1.48942 -1.359602,1.43299 -1.278818,1.40686 -1.170165,1.34409 -1.08585,1.28765 -1.005419,1.22272 -0.903462,1.13488 -0.833261,1.04212 -0.747186,0.94191 -0.653698,0.82586 -0.006,-0.005 -0.598307,0.73519 -0.589495,0.69815 -0.589139,0.66499 -0.556326,0.6438 -0.557745,0.60184 -0.542216,0.56834 -0.527756,0.55067 -0.510474,0.50695 -0.494945,0.47908 -0.494591,0.45966 -0.456142,0.43322 -0.447326,0.39124 -0.440266,0.37357 -0.407104,0.34221 -0.394759,0.32278 -0.368302,0.30162 -0.35419,0.27552 -0.336902,0.23849 -0.307268,0.22824 -0.306917,0.20532 -0.266697,0.18415 -0.243774,0.16123 -0.219427,0.14041 -0.196144,0.13511 -0.173916,0.10159 -0.14923,0.0825 -0.117475,0.0667 -0.09454,0.0596 -0.06138,0.03 -0.03457,0.0205 0.0011,-0.008 -3.803301,1.81223 3.159477,2.78941 v 0.004 l 0.03175,0.0349 0.05609,0.0547 0.08608,0.0755 0.108654,0.0981 0.142171,0.12101 0.157687,0.16157 0.180628,0.16827 0.196493,0.19297 0.228248,0.21238 0.23495,0.23672 0.2667,0.25964 0.275519,0.27376 0.2981,0.29809 0.306912,0.32279 0.331613,0.33867 0.336901,0.34361 0.336908,0.37923 0.370059,0.39652 0.377121,0.41558 0.392994,0.42474 0.391234,0.44697 0.410628,0.45966 0.406755,0.48439 0.417689,0.49105 0.433211,0.51928 0.4318,0.52106 0.424391,0.53871 0.447326,0.55421 0.440267,0.57007 0.440266,0.58069 0.428268,0.58207 -0.0053,0.004 0.51929,0.70343 0.605015,0.81245 0.706969,0.94369 0.793044,1.03151 0.905224,1.12113 0.996598,1.21037 1.117248,1.27707 1.193097,1.33491 1.304919,1.38606 1.429814,1.4418 1.531403,1.47038 1.643946,1.48413 1.743784,1.5173 1.868308,1.51589 1.996368,1.51554 2.089153,1.50177 0.289631,0.19261 -0.478017,0.42758 -0.689327,0.55774 -0.65264,0.49494 -0.621239,0.44908 -0.606777,0.40006 -0.564798,0.34537 -0.533402,0.30692 -0.494591,0.26669 -0.463198,0.23707 -0.417693,0.20319 -0.392993,0.16511 -0.345369,0.13335 -0.305506,0.10337 -0.261409,0.0861 -0.210251,0.0631 -0.180975,0.0473 -0.110421,0.0229 -0.07021,0.009 -0.02434,0.007 0.06315,-0.007 0.381355,2.75625 -2.698046,0.68439 1.689102,6.59271 0.501999,1.94699 1.99461,0.14393 8.01793,0.59548 1.552575,1.06892 2.138545,1.4157 2.073267,1.33526 2.021065,1.26471 1.956152,1.19451 1.868308,1.11407 1.831273,1.04564 1.759649,0.98954 1.689452,0.92075 1.634773,0.84032 1.579039,0.7948 1.492957,0.7299 1.42945,0.67521 1.36843,0.62124 1.30528,0.57362 1.22448,0.51047 1.16311,0.47166 1.09115,0.42475 1.02269,0.37712 0.95075,0.3369 0.88794,0.30691 0.80856,0.25965 0.74754,0.2279 0.67345,0.19473 0.58949,0.16686 0.53516,0.14006 0.44028,0.11077 0.38593,0.079 0.2981,0.0632 0.2353,0.0455 0.14182,0.0247 0.0949,0.0155 0.43462,-2.74356 h 0.003 c 7.9e-4,2.6e-4 0.001,2.6e-4 0.001,2.6e-4 l 2.78907,-2.6e-4 v -12.54073 h -2.79048 c -8e-4,0 -10e-4,-2.7e-4 -0.002,-2.7e-4 l 0.38065,-2.75766 -1.00542,-0.15628 -0.95779,-0.19826 -0.92639,-0.23496 -0.89641,-0.26669 -0.84173,-0.27552 -0.80892,-0.3228 -0.78599,-0.3369 -0.74719,-0.35418 -0.71401,-0.36125 -0.68404,-0.40004 -0.64382,-0.393 -0.61242,-0.40887 -0.58949,-0.41557 -0.54187,-0.42475 -0.31291,-0.25117 1.96956,0.43991 3.66994,0.64346 3.8033,0.52635 3.94546,0.38417 0.50977,0.0286 v 19.2003 c 0,6.9924 -4.8962,7.31555 -4.8962,7.31555 -3.37891,0 -6.11188,-2.57034 -6.11188,-2.57034 0,10.68564 8.76089,11.33122 8.76089,11.33122 4.90325,0 6.26957,-2.17735 6.26957,-2.17735 m 72.446089,-62.94542 0.46319,3.90489 1.71381,-2.19287 -2.177,-1.71202 m -7.3857,-60.89131 1.91592,2.89984 0.20533,-2.2158 -2.12125,-0.68404 m -69.082639,71.64883 -1.95017,-0.21272 -3.4872,-0.55069 -3.07163,-0.64982 0.22683,-0.83503 0.22649,-0.81561 0.18944,-0.77894 0.16651,-0.75106 0.14922,-0.69109 0.10866,-0.64736 0.10372,-0.59477 0.0928,-0.52953 0.0649,-0.48789 0.0614,-0.41203 0.0318,-0.36514 0.0314,-0.28752 0.0229,-0.21942 0.007,-0.13335 0.009,-0.0825 0.007,-0.16475 v -0.0194 l -2.6e-4,0.008 -0.0296,-1.01529 -0.0949,-0.98073 -0.14887,-0.92816 -0.20355,-0.90346 -0.24554,-0.84032 -0.31397,-0.80503 -0.35277,-0.75071 -0.393,-0.69675 -0.44027,-0.65581 -0.46319,-0.60008 -0.48578,-0.54221 -0.52811,-0.49988 -0.51752,-0.44733 -0.54399,-0.39652 -0.54009,-0.36125 -0.54399,-0.31396 -0.53481,-0.26494 -0.52458,-0.2353 -0.51047,-0.2032 -0.50377,-0.17745 -0.47167,-0.14888 -0.46319,-0.11923 -0.43321,-0.10195 -0.40711,-0.0702 -0.37006,-0.0702 -0.33161,-0.0402 -0.30339,-0.0353 -0.25294,-0.0261 -0.22789,-0.0123 -0.1577,-0.005 -0.0526,-0.001 -0.0653,-0.006 -0.0187,-7.9e-4 -0.0759,-0.006 v 0.004 l -0.0949,-0.004 h -0.19472 l -0.25966,0.007 -0.282211,0.0194 -0.322795,0.0367 -0.345726,0.0582 -0.368302,0.0752 -0.401807,0.10194 -0.41593,0.12628 -0.449078,0.15595 -0.4558,0.18062 -0.486124,0.22471 -0.503412,0.25612 -0.510466,0.28609 -0.542229,0.33338 -0.541859,0.3736 -0.558094,0.42439 -0.573622,0.45966 -0.580667,0.50165 -0.582436,0.56305 -0.59655,0.61595 -0.612066,0.65616 -0.613831,0.72601 -0.621244,0.77012 -0.636765,0.83715 -0.419105,0.60182 -1.072793,-1.16275 -1.124654,-1.36842 -1.005065,-1.34196 -0.88088,-1.33139 -0.777171,-1.28587 -0.684033,-1.24919 -0.580673,-1.19451 -0.487889,-1.13524 -0.40146,-1.05234 -0.33691,-0.95779 -0.273754,-0.86853 -0.189439,-0.756 -0.157699,-0.62443 -0.09313,-0.49848 -0.0702,-0.36123 -0.0032,-0.018 0.118886,-2.50825 0.385939,-2.4437 0.61948,-2.26659 0.826201,-2.11386 1.03681,-1.98047 0.890418,-1.34445 0.0141,0.0254 1.068213,1.70533 1.217433,1.69261 1.368432,1.70004 1.522934,1.68241 1.697916,1.65064 1.861257,1.62983 2.028115,1.58397 2.231327,1.53495 2.41935,1.48096 2.617258,1.40688 2.82963,1.34372 3.0473,1.24566 3.25261,1.16629 3.49073,1.07738 0.75318,-2.6797 h 2.78838 V 197.8731 h -2.78412 l 1.17405,-2.51814 v -0.009 l -0.1016,-0.0437 -0.17357,-0.0896 -0.24412,-0.12099 -0.30692,-0.1771 -0.37536,-0.20003 -0.40887,-0.24729 -0.47871,-0.28435 -0.51047,-0.31396 -0.54399,-0.35243 -0.57361,-0.40534 -0.61243,-0.42086 -0.62794,-0.47026 -0.63676,-0.50378 -0.63677,-0.52951 -0.65969,-0.57008 -0.64382,-0.60536 -0.64558,-0.63502 -0.62795,-0.6738 -0.42121,-0.48082 1.19203,-0.32352 2.29306,-0.55068 2.22426,-0.45966 2.15935,-0.4036 2.06834,-0.33511 1.48519,-0.21627 v 57.15212 m -63.879582,-15.9186 -0.01765,-0.0123 0.0053,-0.004 0.01236,0.0162 m 45.466702,-5.55132 -0.0688,-0.002 -0.0423,-0.006 0.0395,0.001 0.0716,0.006 m -0.11113,-0.007 -0.0363,-0.001 v -0.004 l 0.0363,0.005 m -20.174287,-6.99522 -2.65e-4,-0.003 v -0.004 l 2.65e-4,0.007 M 23.032252,212.0033 h -0.0085 l 0.02257,-0.0159 -0.0011,0.008 -0.01304,0.007 m 10.850388,-9.99773 v -0.0123 l 0.006,0.005 -0.006,0.007" />
      <path
         inkscape:connector-curvature="0"
         id="path80"
         style="fill:#c20c18;fill-opacity:1;fill-rule:nonzero;stroke:none;stroke-width:1.358729"
         d="m 208.17555,216.34537 -0.39123,-11.07829 12.82913,-0.44909 0.15098,4.38046 -10.02771,0.35102 0.22824,6.69782 -2.78941,0.0981 M -4.9300898,215.78836 c -0.07515,0 -0.152058,-0.001 -0.229658,-0.004 l -0.189459,-0.009 0.140409,-4.21887 c 0.14183,0.0226 0.268114,0.0438 0.39442,0.0473 0.02045,7.9e-4 0.04057,0.001 0.06068,0.001 0.971194,0 1.447801,-0.83823 1.511299,-2.56576 0.0455,-1.39137 -0.370068,-2.18934 -1.04563,-2.21403 -0.01341,-2.7e-4 -0.02683,-8e-4 -0.04022,-8e-4 -0.820923,0 -0.981077,0.90594 -1.429822,2.64091 -0.580671,2.26306 -0.95778,3.96487 -1.996369,5.03306 -0.596195,0.6195 -1.391349,0.93063 -2.3364492,0.93063 -0.0504,0 -0.10158,-7.9e-4 -0.15274,-0.002 -2.50685,-0.0861 -3.8033,-2.36151 -3.65443,-6.68761 0.14605,-4.11128 1.35926,-6.10764 3.83857,-6.10764 0.0554,0 0.1118302,0.001 0.1682702,0.003 l 0.14924,0.009 -0.14041,4.00684 -0.0561,-0.004 c -0.0166,-8e-4 -0.0328,-0.001 -0.049,-0.001 -0.8420902,0 -1.3342202,0.80434 -1.3878402,2.34139 -0.0402,1.2453 0.28963,1.91735 0.87913,1.93675 0.0127,2.6e-4 0.0254,7.9e-4 0.0377,7.9e-4 0.8699502,-2.6e-4 1.0230702,-1.08093 1.6129102,-3.36375 0.415912,-1.58961 0.761283,-2.93512 1.563151,-3.97545 0.634995,-0.8001 1.572341,-1.24424 2.653606,-1.24424 0.04515,0 0.0903,8e-4 0.135801,0.002 2.569998,0.091 3.98392999,2.56646 3.81882399,7.1942 -0.144995,4.28802 -1.37123399,6.25123 -4.25589899,6.25123 m 4.86126699,-15.26294 -3.00177599,-0.42122 0.542214,-3.83117 2.99473599,0.42087 -0.535174,3.83152 m 207.24776881,-2.67722 -1.16311,-4.65066 2.0193,-1.49261 -1.61219,-6.46643 -2.49802,-0.44379 -1.04386,-4.18394 14.05536,3.34715 1.15607,4.63126 -10.91355,9.25902 m 2.26132,-12.04489 1.0227,4.10138 4.03859,-3.11891 -5.06129,-0.98247 m -210.7170038,0.0617 c -0.726011,0 -1.486602,-0.13334 -2.272579,-0.40357 -4.133145,-1.42099 -5.587306,-4.90325 -3.920777,-9.75394 1.218853,-3.53837 2.985197,-5.30791 5.232755,-5.30791 0.418041,0 0.852661,0.061 1.30351699,0.18346 l -1.47708499,4.28412 c -0.156278,-0.0236 -0.30657,-0.0353 -0.450511,-0.0353 -1.012104,0 -1.711308,0.58281 -2.110659,1.73181 -0.722845,2.08915 0.234956,3.75567 2.710386,4.60833 0.645589,0.22331 1.242495,0.33301 1.78399899,0.33301 1.450278,0 2.50260401,-0.7881 3.01766701,-2.29764 0.517174,-1.51765 0.101587,-2.69452 -1.242129,-3.40147 l 1.477085,-4.29825 c 3.120652,1.4104 3.748953,4.24532 2.154047,8.86283 -1.241419,3.60785 -3.477674,5.49451 -6.205716,5.49451 m 201.5719338,-12.24351 -2.649,-4.96992 4.9911,-9.03254 -7.63129,4.05767 -1.94028,-3.63327 11.33122,-6.02261 2.55411,4.79635 -4.8648,9.1888 7.59954,-4.04177 1.94027,3.63327 -11.33087,6.02402 m -191.9873138,-2.54353 -2.750606,-1.28058 1.641825,-3.50343 2.742144,1.28058 -1.633363,3.50343 m 6.3944628,-12.15389 -10.7554998,-6.98536 2.380538,-3.67699 10.7643088,6.98534 -2.389347,3.67701 m 174.234841,-8.99366 c -2.04223,0 -4.15043,-1.21954 -6.2671,-3.65266 -3.33869,-3.8474 -3.32985,-7.39811 -0.0459,-10.2503 1.30705,-1.13596 2.69805,-1.70429 4.12257,-1.70429 2.03483,0 4.13774,1.15994 6.16125,3.48476 3.40149,3.91195 3.4103,7.53814 0.11748,10.40093 -1.31939,1.1483 -2.68816,1.72156 -4.08834,1.72156 m -0.55281,-11.75313 c -0.93416,0 -1.94415,0.43319 -2.96368,1.32007 -1.97344,1.71557 -2.18404,3.48405 -0.65263,5.24335 0.80503,0.92675 1.66934,1.38994 2.58128,1.38994 0.85124,0 1.74412,-0.40323 2.66946,-1.20897 2.10503,-1.82633 2.37172,-3.74014 0.83149,-5.51568 -0.70767,-0.81281 -1.55045,-1.22871 -2.46592,-1.22871 m -165.689473,9.3179 -9.232903,-8.91362 3.770117,-3.90842 10.246793,1.78574 -6.1909,-5.97851 2.859257,-2.96334 9.23291,8.91363 -3.920765,4.05237 -10.127549,-1.95406 6.222296,6.005 -2.859256,2.96121 m 148.316223,-13.208 -3.44909,-2.70015 7.89622,-10.11167 3.45582,2.6984 -7.90295,10.11342 m -127.117466,-6.11716 -5.312129,-8.49454 -4.045297,2.53507 -1.494718,-2.38937 11.81699,-7.3854 1.494719,2.3876 -4.05588,2.52941 5.313531,8.49419 -3.717216,2.32304 M 158.63991,124.403 c -1.43545,0 -3.12843,-0.56125 -5.11917,-1.66264 -4.21921,-2.34209 -5.45393,-5.77885 -3.5366,-9.23995 1.30564,-2.36079 3.2124,-3.58033 5.53862,-3.58033 1.43686,0 3.03391,0.46564 4.74663,1.41567 3.88056,2.15233 5.17878,4.62423 3.91195,7.32228 l -3.96804,-2.1964 c 0.41063,-1.20157 -0.007,-2.14561 -1.22449,-2.81728 -0.60677,-0.33656 -1.20122,-0.50341 -1.77024,-0.50341 -1.2439,0 -2.36679,0.79797 -3.23464,2.36997 -1.21919,2.20167 -0.81773,4.01211 1.09999,5.07153 0.55102,0.30725 1.07774,0.46071 1.57021,0.46071 0.75741,0 1.43473,-0.36301 1.99777,-1.08867 l 3.9737,2.2052 c -1.03187,1.50603 -2.33963,2.24332 -3.98569,2.24332 m -99.314003,-5.18371 -4.597747,-11.97821 10.678216,-4.1014 0.991303,2.58233 -6.671722,2.56117 0.738714,1.91205 6.167966,-2.36818 0.973672,2.5421 -6.166199,2.3682 0.894636,2.32974 6.91515,-2.65606 1.005419,2.61231 -10.929408,4.19595 m 81.299043,-3.23638 -4.62598,-1.24213 -0.33161,-2.48249 -6.44348,-1.72791 -1.59456,1.97201 -4.16489,-1.11935 9.74336,-10.67153 4.614,1.2333 2.80316,14.0381 m -6.12774,-11.77148 -3.30166,3.94898 4.07176,1.09291 -0.7701,-5.04189 m -55.709269,8.27509 -2.22249,-12.639665 7.24322,-1.277052 c 1.25555,-0.221199 2.27825,-0.401119 3.12421,-0.401119 0.53622,0 1.00189,0.07233 1.41076,0.25188 0.84737,0.37713 1.46861,1.226259 1.66475,2.350566 0.28258,1.62983 -0.66815,2.9771 -2.64019,3.48932 0.35349,-0.0434 0.67311,-0.0667 0.96274,-0.0667 1.36454,0 2.05846,0.51507 2.44757,1.8334 l 0.58949,2.05069 c 0.13335,0.44382 0.40182,1.1402 0.84914,2.03836 l -4.38397,0.77577 c -0.29104,-0.51224 -0.46497,-1.07739 -0.61384,-1.70532 l -0.4318,-1.73323 c -0.21166,-0.92568 -0.53551,-1.2206 -1.19521,-1.2206 -0.21942,0 -0.47624,0.0324 -0.77823,0.0854 l -2.66311,0.47026 0.87206,4.95054 -4.2351,0.74752 m 5.52486,-11.31359 c -0.19473,0 -0.41416,0.0226 -0.66005,0.0649 l -2.4123,0.42476 0.44733,2.52939 2.4123,-0.42439 c 1.13135,-0.20001 1.59455,-0.67873 1.43686,-1.55785 -0.12312,-0.73026 -0.50447,-1.03683 -1.22414,-1.03683 m 31.899569,9.02583 -5.6261,-0.41558 -5.48392,-8.67868 -0.0229,8.64341 -4.11022,0.0543 0.0318,-12.95718 5.4296,0.03351 5.73653,8.77147 0.6664,-8.60813 4.11021,0.0085 -0.73132,13.14838" />
      <path
         inkscape:connector-curvature="0"
         id="path82"
         style="fill:#c20c18;fill-opacity:1;fill-rule:nonzero;stroke:none;stroke-width:1.358729"
         d="m 113.54926,330.77344 c -3.83364,0 -5.91679,-2.03024 -6.27098,-6.10588 -0.37712,-4.35257 1.69792,-6.78039 6.16091,-7.17338 0.37571,-0.0325 0.73696,-0.049 1.08374,-0.049 3.83363,0 5.91784,1.9939 6.27027,6.03638 0.38593,4.43829 -1.65771,6.84354 -6.17503,7.24359 -0.37077,0.0321 -0.72636,0.0483 -1.06891,0.0483 m 0.42827,-10.80912 c -0.0847,0 -0.17251,0.004 -0.26282,0.012 -1.72966,0.14217 -2.25601,1.50883 -2.01224,4.35257 0.24483,2.69593 0.84455,3.90454 2.43169,3.90454 0.0974,0 0.19862,-0.005 0.3034,-0.0134 1.68945,-0.14923 2.19109,-1.37548 1.94873,-4.11727 -0.24588,-2.80106 -0.87912,-4.13844 -2.40876,-4.13844 m -21.013559,10.75545 c -0.34608,0 -0.70555,-0.0162 -1.07774,-0.049 -3.54365,-0.30727 -5.36646,-1.83868 -5.17701,-4.02272 l 4.17865,0.3683 c -0.0141,0.88088 0.51753,1.32115 1.67534,1.4157 0.11818,0.0102 0.23178,0.0155 0.34114,0.0155 1.55187,0 2.21015,-1.04457 2.41653,-3.37855 l 0.0388,-0.42439 c -0.77082,0.84384 -1.85879,1.26329 -3.22897,1.26329 -0.21097,0 -0.42897,-0.0102 -0.65335,-0.03 -3.19792,-0.27553 -4.95759,-1.97168 -4.7385,-4.42419 0.22013,-2.55094 2.2352,-4.06118 5.73722,-4.06118 0.38029,0 0.77893,0.018 1.19415,0.0543 4.21217,0.37006 6.28579,2.67864 5.93126,6.64704 -0.37501,4.39349 -2.59822,6.62587 -6.63752,6.62587 m 0.17674,-11.06594 c -1.03434,0 -1.911,0.77082 -2.00025,1.79282 -0.0945,1.0594 0.7299,2.02601 1.84573,2.12091 0.0603,0.005 0.1203,0.007 0.17992,0.007 1.04176,0 1.89124,-0.77153 1.97239,-1.77413 0.0949,-1.08584 -0.70698,-2.04539 -1.80694,-2.13853 -0.0642,-0.006 -0.1277,-0.008 -0.19085,-0.008 m -19.365734,7.62211 -4.108807,-1.17862 2.513899,-8.7609 c -1.350791,0.34538 -2.703333,0.53483 -4.094335,0.55775 l 0.943676,-3.28401 c 1.475666,-0.0861 3.024363,-0.31396 4.619271,-0.73872 l 3.66995,1.04563 -3.543654,12.35887 m 59.463163,-0.15558 c -1.92616,0 -3.19052,-0.82373 -3.62091,-2.32656 l 4.0386,-1.16312 c 0.21166,0.59656 0.60183,0.87632 1.2125,0.87632 0.24977,0 0.53657,-0.0466 0.86254,-0.13796 1.73495,-0.50339 2.05069,-1.72084 1.35784,-4.13278 l -0.11571,-0.40887 c -0.47343,1.22626 -1.54905,2.07539 -3.18206,2.53823 -0.76552,0.2205 -1.4792,0.32774 -2.13043,0.32774 -1.97026,0 -3.36656,-0.98038 -3.87279,-2.76438 -0.78776,-2.72591 0.94192,-5.04331 5.03625,-6.22228 0.92287,-0.26424 1.77906,-0.39547 2.56364,-0.39547 2.66876,0 4.51415,1.51765 5.36434,4.48099 1.31904,4.59634 -0.30021,7.59812 -4.84716,8.91011 -0.99096,0.28186 -1.88313,0.41803 -2.66665,0.41803 m 0.61383,-11.30828 c -0.18344,0 -0.37112,0.0254 -0.55774,0.0787 -1.07527,0.31397 -1.70321,1.41392 -1.40511,2.45956 0.24447,0.84137 1.03998,1.40017 1.92298,1.40017 0.18874,0 0.38136,-0.0258 0.57327,-0.0794 1.07915,-0.30692 1.66828,-1.40688 1.37725,-2.42958 -0.25365,-0.86182 -1.0414,-1.42945 -1.91065,-1.42945" />
      <path
         inkscape:connector-curvature="0"
         id="path84"
         style="fill:#ffffff;fill-opacity:1;fill-rule:nonzero;stroke:none;stroke-width:1.358729"
         d="m 105.97406,300.66385 c 0,0 -3.69957,-1.13171 -6.269919,-5.39115 0,0 -1.3663,2.17735 -6.26957,2.17735 0,0 -8.76087,-0.64559 -8.76087,-11.33123 0,0 2.73297,2.57035 6.11187,2.57035 0,0 4.89621,-0.32316 4.89621,-7.31556 v -19.20028 l 3.57434,0.19968 4.227689,0.0875 v -2.78166 2.78166 l 4.43829,-0.0787 4.29824,-0.21238 3.87421,-0.33126 v 19.53542 c 0,6.9924 4.90326,7.31556 4.90326,7.31556 3.37891,0 6.11364,-2.57035 6.11364,-2.57035 0,10.68564 -8.68362,11.33123 -8.68362,11.33123 -4.89444,0 -6.26111,-2.17735 -6.26111,-2.17735 -2.65606,4.25944 -6.19266,5.39115 -6.19266,5.39115 M 105.731,246.41472 v -2.79681 l -4.25768,-0.0773 -3.992729,-0.25965 -1.79881,-0.19615 v -57.15212 l 0.478,-0.0695 1.84009,-0.2247 1.68946,-0.18415 1.515879,-0.12983 1.33668,-0.10159 1.12959,-0.0755 0.91228,-0.0473 0.65264,-0.0229 0.40711,-0.0123 0.0875,-0.003 v 0.01 l 3.54365,0.0472 3.39478,0.17747 3.28401,0.27164 0.14111,0.0169 v 57.97023 l -1.24283,0.0868 -1.45945,0.0861 -1.35078,0.0473 -1.23508,0.0229 h -1.11583 l -0.96661,-0.0141 -0.8315,-0.0243 -0.69286,-0.0317 -0.5334,-0.0314 -0.38418,-0.0317 -0.22824,-0.0229 h -0.0402 l -0.28257,-0.0243 v 2.79682 m 0.28257,-2.7725 -0.21236,-0.0243 h -0.0702 l 0.28257,0.0243 m -0.28257,-58.57026 v -0.01 l 0.0229,-7.9e-4 -0.0229,0.0106 m 10.36355,-18.5198 -0.17992,-0.0229 -1.39982,-0.15277 -1.30352,-0.12981 -1.21743,-0.11395 -1.13136,-0.0861 -1.0227,-0.0667 -0.91758,-0.0526 -0.81738,-0.0349 -0.70027,-0.0264 -0.57362,-0.0159 -0.4699,-0.009 -0.35453,-0.003 h -0.27552 v -0.007 l -4.13985,0.0857 -4.024489,0.22296 -1.88489,0.1838 v -19.002 c 0,-6.99277 -4.8962,-7.31204 -4.8962,-7.31204 -3.37891,0 -6.11188,2.56999 -6.11188,2.56999 0,-10.68879 8.76088,-11.33087 8.76088,-11.33087 4.90326,0 6.26957,2.1703 6.26957,2.1703 2.570339,-4.25979 6.269919,-5.38763 6.269919,-5.38763 0,0 3.53659,1.12784 6.19265,5.38763 0,0 1.36667,-2.1703 6.26111,-2.1703 0,0 8.68362,0.64208 8.68362,11.33087 0,0 -2.73472,-2.56999 -6.11363,-2.56999 0,0 -4.90326,0.31927 -4.90326,7.31204 v 19.23061 m -10.36355,-0.71402 h -0.0226 l 0.0226,-0.007 v 0.007" />
      <path
         inkscape:connector-curvature="0"
         id="path86"
         style="fill:#c20c18;fill-opacity:1;fill-rule:nonzero;stroke:none;stroke-width:1.358729"
         d="m 103.4838,262.46049 v -2.78166 c 11.28994,0 21.00086,-1.43086 29.24668,-3.61102 l -0.16686,0.5147 -0.28257,0.74718 -0.3228,0.73166 -0.3683,0.71368 -0.3175,0.52351 -3.47944,0.78141 -3.65936,0.69144 -3.81917,0.58067 -3.96805,0.46461 -4.1261,0.35278 -4.29824,0.21238 -4.43829,0.0787 -4.227689,-0.0875 -4.08411,-0.22825 -3.94546,-0.38418 -3.8033,-0.52635 -3.66995,-0.64346 -1.96956,-0.43991 -0.20638,-0.16617 -0.49494,-0.41591 -0.45614,-0.40887 -0.42439,-0.41558 -0.38418,-0.393 -0.363,-0.39299 -0.32809,-0.35418 -0.29139,-0.35278 -0.1143,-0.13865 0.24059,-0.26317 0.15946,-0.1852 c 7.13916,1.8743 15.22906,3.01447 24.362829,3.01447 v 2.78166 m 55.65069,-14.82196 0.0801,-2.80246 0.0328,-0.1958 0.0536,-0.43356 c 7.62211,-5.19077 11.12837,-9.68799 11.12837,-9.68799 l -6.75075,-5.30295 c -1.94874,1.403 -3.90454,2.69381 -5.85894,3.88232 l -0.30022,-0.87277 -0.65263,-1.55258 -0.0956,-0.20073 0.15875,-0.0938 2.55411,-1.64183 2.56998,-1.77905 1.70358,-1.22625 1.64217,1.29292 -3.34575,-0.0667 3.34575,0.0667 6.7504,5.30332 -3.44204,4.38397 3.44204,-4.38397 0.4632,3.90489 -0.0931,0.1263 -0.19827,0.24235 -0.32985,0.38241 -0.45613,0.50165 -0.57363,0.60149 -0.68228,0.71613 -0.83324,0.80858 -0.95073,0.90346 -1.07739,0.95779 -1.20863,1.02976 -1.34372,1.08408 -1.47884,1.12466 -1.61044,1.17016 -1.7526,1.18745 -0.89006,0.57009 m -106.616143,-0.0247 -0.289629,-0.19261 -2.089155,-1.50177 -1.996369,-1.51553 -1.86831,-1.51589 -1.743782,-1.51731 -1.643943,-1.48413 -1.531406,-1.47037 -1.429811,-1.44181 -1.304925,-1.38606 -1.193091,-1.33492 -1.11725,-1.27705 -0.996599,-1.21038 -0.905224,-1.12114 -0.793043,-1.0315 -0.706967,-0.94369 -0.605017,-0.81246 -0.51929,-0.70342 0.01765,0.0123 -0.01236,-0.0162 -0.0053,0.004 0.0053,-0.004 -0.428267,-0.58207 -0.44027,-0.58069 -0.440266,-0.57009 -0.447323,-0.5542 -0.424395,-0.5387 -0.4318,-0.52106 -0.43321,-0.51928 -0.41769,-0.49107 -0.406752,-0.48437 -0.41063,-0.45966 -0.391234,-0.44697 -0.392994,-0.42475 -0.377119,-0.41556 -0.370062,-0.39653 -0.336904,-0.37924 -0.336905,-0.34361 -0.33161,-0.33866 -0.306911,-0.32279 -0.298104,-0.29809 -0.275518,-0.27376 -0.2667,-0.25965 -0.23495,-0.23671 -0.228248,-0.21237 -0.196493,-0.19298 -0.180626,-0.16827 -0.157686,-0.16157 -0.142172,-0.12101 -0.108653,-0.0981 -0.08608,-0.0755 -0.05609,-0.0547 -0.03175,-0.0349 v -0.004 l -3.159476,-2.78941 3.8033,-1.81223 -0.02257,0.0159 h 0.0085 l 0.01304,-0.007 -0.64276,4.59318 0.64276,-4.59318 0.03457,-0.0205 0.06139,-0.03 0.09454,-0.0596 0.117475,-0.0667 0.149231,-0.0825 0.173916,-0.10159 0.196143,-0.13511 0.21943,-0.14042 0.243771,-0.16122 0.266697,-0.18414 0.306917,-0.20533 0.307269,-0.22824 0.336901,-0.23849 0.35419,-0.27551 0.368303,-0.30162 0.394756,-0.32279 0.407106,-0.3422 0.440267,-0.37358 0.447325,-0.39123 0.456142,-0.43323 0.494591,-0.45966 0.494945,-0.47908 0.510474,-0.50695 0.527757,-0.55067 0.542216,-0.56834 0.557744,-0.60182 0.556329,-0.64381 0.589137,-0.66499 0.589497,-0.69816 0.598305,-0.73519 0.006,0.005 0.653698,-0.82585 0.747183,-0.94192 0.83326,-1.04209 0.903465,-1.1349 1.00542,-1.22273 1.08585,-1.28763 1.170156,-1.34411 1.278824,-1.40686 1.359604,-1.433 1.477081,-1.48941 1.556108,-1.5053 1.66652,-1.5279 1.775174,-1.52788 1.870075,-1.54057 1.987908,-1.52789 2.090914,-1.51729 0.92251,-0.61667 -0.08855,2.50086 -0.0013,0.0106 -0.0314,0.28259 -0.03881,0.43672 -0.0113,0.27095 c -10.568191,7.57696 -16.756266,16.01856 -20.041332,20.12985 -6.757464,8.36082 -11.818411,10.76782 -11.818411,10.76782 0,0 4.903256,4.34199 9.806162,11.01338 2.502609,3.44946 8.893881,12.29713 20.520033,20.12314 l -0.364072,0.37995 -0.740124,0.7313 -0.73872,0.67558 -0.206023,0.1845 m -30.11601,-31.02434 v 0 m 11.480094,-14.59582 v 0.0123 l 0.006,-0.007 -0.006,-0.005 m 76.265981,44.58549 c -2.81482,0 -4.41749,-0.1644 -4.41749,-0.1644 v -2.79681 l 0.28258,0.0243 h 0.0402 l 0.22824,0.0229 0.38418,0.0318 0.5334,0.0314 0.69286,0.0317 0.83149,0.0243 0.96661,0.0141 h 1.11584 l 1.23507,-0.0229 1.35079,-0.0473 1.45944,-0.0861 1.58045,-0.11042 1.67357,-0.14041 1.77729,-0.19649 1.87714,-0.23672 1.9558,-0.2981 2.03517,-0.34572 2.11385,-0.41769 2.16993,-0.48577 0.81174,-0.19932 0.49248,0.72602 0.47907,0.81738 0.44733,0.8315 0.0628,0.14005 c -9.52606,2.40101 -17.51543,2.85256 -22.17985,2.85256 m -4.41748,-0.16439 c -7.516639,0 -13.940719,-0.77293 -19.432759,-2.0775 l 0.28398,-0.81316 0.29986,-0.93487 0.28258,-0.88793 0.008,-0.0296 3.07164,0.64982 3.48719,0.55069 3.74898,0.40887 3.992729,0.25964 4.25768,0.0773 v 2.79681 m 0.28257,-2.77247 -0.28257,-0.0243 h 0.0702 l 0.21237,0.0243 m 66.59986,-7.4101 -0.46319,-3.90489 2.177,1.71202 -1.71381,2.19287 m -109.011722,-3.8361 c -8.365411,-8.41058 -9.383181,-17.48825 -9.383181,-17.48825 l 2.789063,-8e-4 h -2.789063 c 0,-6.31824 2.001298,-11.41448 5.214408,-15.52293 l 0.537274,1.08903 0.920758,1.65699 -0.890418,1.34445 -1.03681,1.98047 -0.826198,2.11385 -0.619483,2.26659 -0.38595,2.4437 -0.118875,2.50826 0.0032,0.018 0.0702,0.36126 0.09313,0.49847 0.157697,0.62442 0.189439,0.756 0.273754,0.86853 0.336912,0.9578 0.40146,1.05233 0.487887,1.13525 0.580673,1.1945 0.684032,1.24919 0.777174,1.28587 0.88088,1.33139 1.005062,1.34196 1.124657,1.36842 1.07279,1.16277 -0.208838,0.2995 -0.635003,0.96132 -0.645578,1.03682 -0.06103,0.10477 m -6.61847,-17.79048 v 0.004 l 2.65e-4,0.003 -2.65e-4,-0.007 m -33.937922,-2.60916 0.0011,-0.008 -0.0011,0.008 m 143.949151,-5.94848 h -5.82966 l -0.84207,-1.01424 -0.007,-0.019 -0.12628,-0.14041 -0.21909,-0.24023 -0.32808,-0.34925 -0.42474,-0.43322 -0.52776,-0.51398 -0.63676,-0.60186 -0.73695,-0.6632 -0.85796,-0.72251 -0.95074,-0.77893 -1.05939,-0.82127 -1.17192,-0.87522 -1.27389,-0.89289 -1.39806,-0.91051 -1.49119,-0.93171 -1.6122,-0.95072 -1.72085,-0.9384 -1.83655,-0.94402 -1.95087,-0.91405 -0.93839,-0.40852 0.2092,-0.75777 0.28928,-1.19485 0.16862,-0.80186 c 14.19473,6.10587 20.74898,14.02608 20.74898,14.02608 h 3.29989 l 1.60161,-1.76811 c -5.14703,-8.83989 -3.44912,-27.40377 -3.44912,-27.40377 l -0.006,-0.002 0.84807,-2.6455 1.91592,2.89984 0.0155,0.0314 -0.0155,0.1457 -0.0141,0.23143 -0.0332,0.34218 -0.0229,0.4124 -0.0317,0.51048 -0.0402,0.57361 -0.0212,0.64735 -0.0332,0.71578 -0.0247,0.77894 -0.0141,0.83503 -0.007,0.87169 v 1.91031 l 0.0208,0.99837 0.0335,1.03327 0.0543,1.04565 0.0632,1.06819 0.0857,1.08056 0.0861,1.09149 0.12628,1.08727 0.14041,1.0862 0.16651,1.07175 0.18944,1.06149 0.21239,1.0333 0.23353,1.00153 0.24376,0.9772 0.29988,0.92464 0.31398,0.88229 0.32982,0.8262 0.35278,0.77717 0.39476,0.70344 1.02096,1.75965 -1.3755,1.51378 -1.61043,1.7667 -0.8262,0.91582 m -4.52438,0 v 0 m -78.210479,-17.82656 -0.18415,-0.21026 -0.5895,-0.72638 -0.55597,-0.75423 -0.4819,-0.70767 c 12.00362,-3.41665 23.282979,-3.53977 23.282979,-3.53977 7.15786,0 13.58829,0.69285 19.31917,1.82667 l -0.1457,0.34643 -0.2614,0.56657 -0.26671,0.5648 -0.28928,0.57361 -0.29315,0.55068 -1.65665,-0.30655 -3.03318,-0.4632 -3.00954,-0.35702 -0.14111,-0.0169 -3.28402,-0.27164 -3.39477,-0.17745 -3.54366,-0.0473 0.0229,-0.0106 -0.0229,8e-4 v 0.01 -0.01 l -0.0875,0.003 -0.40712,0.0123 -0.65263,0.0229 -0.91228,0.0473 -1.1296,0.0755 -1.33668,0.10159 -1.515879,0.12984 -1.68946,0.18414 -1.84008,0.22471 -1.96321,0.28577 -2.06833,0.33512 -2.15936,0.40359 -2.22426,0.45966 -2.29306,0.55069 -1.19203,0.3235 m 68.403959,-8.43316 c -2.10398,-0.99554 -4.19912,-1.90287 -6.26921,-2.72873 l 0.0212,-0.0363 0.48083,-0.78246 0.47871,-0.75424 0.48085,-0.7193 0.0649,-0.0892 1.31659,0.53304 2.30892,1.00363 0.21413,0.0977 4.20301,-5.72381 1.1945,-1.61924 1.91065,0.6156 -3.10515,1.00364 3.10515,-1.00364 5.69595,1.85101 -0.84807,2.64549 -5.70584,-1.84679 -5.54708,7.55367 m 14.01692,-5.45252 -1.91593,-2.89985 2.12125,0.68404 -0.20532,2.21581 m -85.455489,-2.60245 0.13124,-0.33336 0.30021,-0.64738 0.33691,-0.64027 0.37006,-0.63183 0.40004,-0.62972 0.33479,-0.45613 3.27978,-0.7306 3.59093,-0.63146 3.73309,-0.51578 3.86468,-0.3771 4.024489,-0.22297 4.13984,-0.0857 -0.0226,0.007 h 0.0226 v 2.78095 c -9.231129,0 -17.360189,1.17688 -24.506059,3.11432 m 45.363399,-0.6272 c -11.43919,-2.40911 -19.715,-2.48779 -20.74829,-2.48779 -0.072,0 -0.109,2.7e-4 -0.109,2.7e-4 v -2.78095 h 0.27552 l 0.35454,0.003 0.4699,0.009 0.57362,0.0159 0.70026,0.0264 0.81738,0.0349 0.91759,0.0526 1.02269,0.0667 1.13136,0.0861 1.21744,0.11395 1.30352,0.12982 1.39982,0.15277 0.17992,0.0229 1.29751,0.16653 1.56281,0.20707 1.6263,0.25259 1.7138,0.27341 1.7667,0.31962 0.58562,0.10934 0.3115,0.36936 0.36159,0.48261 0.32774,0.49635 0.3228,0.53341 0.28433,0.54185 0.25083,0.58244 0.0822,0.21979 m -20.85729,-5.26846 v -0.007 0.007" />
      <path
         inkscape:connector-curvature="0"
         id="path88"
         style="fill:#ffffff;fill-opacity:1;fill-rule:nonzero;stroke:none;stroke-width:1.358729"
         d="m 103.4838,259.67883 c -9.133769,0 -17.223669,-1.14017 -24.362829,-3.01449 l 0.71967,-0.83572 0.81033,-1.04387 0.76834,-1.04528 0.71579,-1.05446 0.66675,-1.05268 0.62265,-1.0594 0.57361,-1.04563 0.52635,-1.05269 0.48578,-1.0227 0.45614,-1.01213 0.40182,-0.9913 0.38417,-0.98037 0.0459,-0.13088 c 5.49204,1.30457 11.91612,2.07751 19.432759,2.07751 0,0 1.60267,0.1644 4.41749,0.1644 4.66442,0 12.65379,-0.45156 22.17984,-2.85256 l 0.32314,0.71614 0.32103,0.87347 0.25259,0.90346 0.18767,0.91935 0.11043,0.94227 0.0385,0.98213 v 0.009 l 0.0247,0.24201 -0.009,-0.007 0.009,0.10901 0.007,0.21379 0.0141,0.28258 0.009,0.36123 -0.0141,0.44733 -0.0159,0.48789 -0.049,0.5648 -0.0455,0.5983 -0.079,0.63501 -0.10865,0.68439 -0.12806,0.6999 -0.17216,0.71544 -0.20355,0.74577 -0.0699,0.2152 c -8.24582,2.18016 -17.95674,3.61103 -29.24668,3.61103 m -25.952459,-4.1917 -0.002,-0.003 0.002,-10e-4 -2.7e-4,0.004 m -0.002,-0.003 -0.0134,-0.0258 0.0155,0.0247 -0.002,0.001 m -22.962156,-9.8418 c -11.626151,-7.82602 -18.017421,-16.67369 -20.52003,-20.12316 -4.902907,-6.67137 -9.806165,-11.01336 -9.806165,-11.01336 0,0 5.06095,-2.407 11.818411,-10.76784 3.285067,-4.11127 9.473142,-12.55288 20.041307,-20.12985 l -0.01304,0.30621 -0.02294,0.70697 v 0.82973 l 0.0314,0.94581 0.06315,1.06114 0.116057,1.1543 0.182385,1.24213 0.219432,1.3402 0.320675,1.4016 0.39475,1.47706 0.472025,1.52824 0.59654,1.5875 0.691094,1.6263 0.280464,0.56868 c -3.213111,4.10845 -5.214411,9.20467 -5.214411,15.52364 0,0 1.01777,9.07767 9.383181,17.48824 l -0.583134,1.00048 -0.643469,1.18252 v -0.0123 l -0.849141,1.51941 -0.840314,1.4471 -0.856192,1.33844 -0.835027,1.258 -0.831493,1.17863 -0.808921,1.09326 -0.810329,1.00506 -0.801513,0.94192 -0.770464,0.87206 -0.404281,0.42193 m 104.733768,-1.43583 8e-4,-0.007 0.049,-0.56655 0.0388,-0.68227 0.007,-0.81069 -0.0159,-0.91933 -0.0455,-1.03682 -0.11783,-1.11548 -0.17356,-1.22097 -0.24379,-1.30528 -0.33689,-1.37019 -0.42439,-1.43827 -0.21908,-0.63605 c 1.9544,-1.18852 3.9102,-2.47933 5.85894,-3.88232 l 6.75075,5.30294 c 0,0 -3.50627,4.49722 -11.12837,9.68799 m 6.46884,-40.95085 h -3.29989 c 0,0 -6.55425,-7.92021 -20.74898,-14.0261 l 0.0984,-0.46813 -2.34843,-0.45826 2.34843,0.45826 0.23671,-1.13524 0.28223,-1.09113 0.29845,-1.07704 0.33867,-1.04916 0.35947,-1.02976 0.40182,-0.99271 0.40852,-0.96661 0.42474,-0.94404 0.44732,-0.90664 0.45613,-0.87559 0.46498,-0.85266 0.45579,-0.78105 c 2.0701,0.82586 4.16523,1.73319 6.26921,2.72873 l 5.54709,-7.55367 5.70583,1.84679 0.006,0.002 c 0,0 -1.69792,18.56388 3.4491,27.40379 l -1.6016,1.76811 m -83.321889,-17.4325 -0.0533,-0.0783 -0.47872,-0.80505 -0.45614,-0.8368 -0.393,-0.865 -0.35419,-0.8876 -0.29845,-0.90346 -0.24376,-0.93874 -0.1718,-0.96978 -0.11925,-0.9913 -0.0571,-0.96486 0.002,-0.037 0.0247,-0.16827 0.0159,-0.23672 0.0384,-0.30515 0.0473,-0.37041 0.0631,-0.42793 0.0773,-0.47202 0.11042,-0.50694 0.11782,-0.55598 0.14888,-0.5789 0.18239,-0.61243 0.20355,-0.62087 0.24377,-0.635 0.12664,-0.32104 c 7.14587,-1.93745 15.27493,-3.11432 24.506059,-3.11432 0,0 0.037,-2.7e-4 0.10901,-2.7e-4 1.03329,0 9.3091,0.0787 20.74828,2.4878 l 0.14605,0.38911 0.18767,0.63675 0.1577,0.67205 0.12452,0.69781 0.0631,0.75458 0.0247,0.78951 0.009,-0.0631 v 0.0173 l -0.009,0.0667 v 0.0896 l -0.009,0.13337 -0.0229,0.15417 -0.009,0.18448 -0.0138,0.21909 -0.0335,0.24376 -0.0314,0.2667 -0.0459,0.29492 -0.0473,0.31927 -0.0473,0.33338 -0.0631,0.36477 -0.079,0.38947 -0.079,0.40004 -0.084,0.42969 -0.10371,0.43498 -0.12453,0.45613 -0.11042,0.47203 -0.14217,0.48575 -0.14923,0.49989 -0.16474,0.51435 -0.17216,0.5193 -0.19614,0.53305 -0.20532,0.53868 -0.22119,0.55776 -0.0875,0.20813 c -5.73087,-1.13382 -12.1613,-1.82668 -19.31916,-1.82668 0,0 -11.279359,0.12312 -23.282979,3.53978" />
      <path
         inkscape:connector-curvature="0"
         id="path90"
         style="fill:#c20c18;fill-opacity:1;fill-rule:nonzero;stroke:none;stroke-width:1.358729"
         d="m 119.23532,228.97271 h -2.79541 v -21.9375 h 2.78942 l -0.762,2.67053 0.77082,0.2392 v 19.02036 l -0.003,0.007" />
      <path
         inkscape:connector-curvature="0"
         id="path92"
         style="fill:#c20c18;fill-opacity:1;fill-rule:nonzero;stroke:none;stroke-width:1.358729"
         d="m 119.31718,267.70912 h -2.7e-4 v -2.79048 l 1.52472,-0.0385 1.38923,-0.1404 1.26683,-0.21238 1.14547,-0.29104 1.04563,-0.35278 0.95074,-0.40146 0.85619,-0.45649 0.77716,-0.51047 0.69991,-0.53305 0.63677,-0.58244 0.57361,-0.62124 0.52635,-0.63499 0.45614,-0.66817 0.10689,-0.17674 0.3175,-0.52353 0.3683,-0.71366 0.3228,-0.73166 0.28258,-0.74719 0.16686,-0.51469 0.0699,-0.21521 0.20354,-0.74576 0.17216,-0.71544 0.12807,-0.69991 0.10864,-0.68438 0.079,-0.63501 0.0455,-0.59831 0.049,-0.5648 0.0159,-0.48789 0.0141,-0.44732 -0.009,-0.36124 -0.0141,-0.28258 -0.007,-0.21379 -0.009,-0.109 0.009,0.007 -0.0247,-0.242 v -0.009 l -0.0384,-0.98213 -0.11042,-0.94227 -0.18767,-0.91934 -0.2526,-0.90347 -0.32103,-0.87347 -0.32315,-0.71614 -0.0628,-0.14005 -0.44732,-0.8315 -0.47908,-0.81739 -0.49247,-0.72601 -0.0515,-0.0759 -0.5962,-0.77011 -0.61948,-0.74719 -0.6611,-0.71402 -0.69144,-0.69109 -0.69992,-0.66852 -0.7299,-0.62441 -0.73836,-0.60185 -0.73837,-0.57714 -0.73871,-0.53516 -0.72285,-0.4946 -0.70696,-0.47025 -0.69285,-0.42968 -0.6597,-0.40534 -0.62794,-0.3489 -0.58068,-0.32137 -0.54398,-0.284 -0.47167,-0.25434 -0.4318,-0.20357 -0.34536,-0.17356 -0.2914,-0.121 -0.20355,-0.0914 -0.11925,-0.0508 -0.005,-0.0123 1.05692,-2.57247 0.003,-0.007 v 0.007 c 0,0 17.11325,7.07672 17.11325,20.09175 0,0 1.68946,18.6443 -17.03423,18.6443 v 7.9e-4 m 14.26915,-18.39489 v 0" />
      <path
         inkscape:connector-curvature="0"
         id="path94"
         style="fill:#c20c18;fill-opacity:1;fill-rule:nonzero;stroke:none;stroke-width:1.358729"
         d="m 119.31152,280.40665 h -2.77671 v -12.69753 h 2.78236 v 9.90635 l -0.10972,0.009 -0.0561,0.008 0.16016,2.77354" />
      <path
         inkscape:connector-curvature="0"
         id="path96"
         style="fill:#c20c18;fill-opacity:1;fill-rule:nonzero;stroke:none;stroke-width:1.358729"
         d="m 119.4724,283.189 -0.16086,-2.78235 -0.16017,-2.77354 0.0561,-0.008 0.10972,-0.009 v 2.79048 c 0,0 37.29109,-2.2472 37.12598,-35.83622 0,0 2.7e-4,-0.002 0.001,-0.005 l 2.74004,0.52317 -2.74004,-0.52317 c 0.0759,-0.40958 4.5579,-25.49455 -37.20606,-37.52956 v 2.91008 l -0.77082,-0.2392 1.52435,-5.34212 3.92783,1.1984 3.64031,1.28763 3.40148,1.35607 3.15068,1.40513 2.92275,1.48238 2.69451,1.52435 2.48392,1.56667 2.27012,1.59986 2.06656,1.63688 1.87009,1.65947 1.69828,1.68063 1.50671,1.67005 1.36135,1.68946 1.18608,1.67005 1.0368,1.66123 0.89641,1.62276 0.66568,1.39736 0.0956,0.20074 0.65265,1.55257 0.30022,0.87278 0.21906,0.63605 0.42439,1.43828 0.33691,1.37018 0.24377,1.30528 0.17356,1.22097 0.11783,1.11548 0.0455,1.03682 0.0159,0.91933 -0.007,0.81069 -0.0388,0.68227 -0.049,0.56656 -7.9e-4,0.007 -0.0536,0.43356 -0.0328,0.19579 -0.0801,2.80246 -0.005,0.15982 -0.32281,3.08892 -0.53515,2.92277 -0.71402,2.74214 -0.90171,2.60137 -1.08585,2.41936 -1.21743,2.25601 -1.35962,2.11208 -1.47709,1.94205 -1.58784,1.79105 -1.67322,1.64182 -1.73708,1.50707 -1.79106,1.37724 -1.81398,1.24002 -1.84715,1.12465 -1.86302,0.99837 -1.85243,0.89464 -1.8228,0.79446 -1.80164,0.70696 -1.7526,0.60537 -1.68063,0.5334 -1.6263,0.45614 -1.52436,0.38417 -1.42981,0.3228 -1.31198,0.25964 -1.20367,0.2032 -1.04352,0.1651 -0.88795,0.11043 -0.73835,0.0949 -0.54223,0.0473 -0.34537,0.0385 -0.16686,0.009" />
      <path
         inkscape:connector-curvature="0"
         id="path98"
         style="fill:#c20c18;fill-opacity:1;fill-rule:nonzero;stroke:none;stroke-width:1.358729"
         d="m 95.098971,220.37657 h -2.78835 v -2.7e-4 l 0.75388,-2.68287 -0.75388,-0.22931 v -19.5827 l 0.004,-0.008 h 2.78413 v 22.50369" />
      <path
         inkscape:connector-curvature="0"
         id="path100"
         style="fill:#c20c18;fill-opacity:1;fill-rule:nonzero;stroke:none;stroke-width:1.358729"
         d="m 92.310621,197.88134 v -0.009 c 0,0 -15.10982,-7.07143 -15.26751,-20.33059 0,0 0,-2.6e-4 0,-0.001 l 2.77495,0.0998 -2.77495,-0.0998 c 0.007,-0.18169 0.6424,-15.82739 15.25658,-16.55306 h 0.0152 l 0.12877,2.77638 -1.15465,0.10372 -1.05938,0.15944 -0.97544,0.22473 -0.91051,0.27692 -0.8174,0.33515 -0.77893,0.37041 -0.70696,0.41205 -0.65264,0.4632 -0.61208,0.48752 -0.56691,0.52284 -0.51753,0.55244 -0.48753,0.57927 -0.10548,0.14357 -0.33478,0.45614 -0.40005,0.62971 -0.37007,0.63184 -0.3369,0.64027 -0.30022,0.64735 -0.13123,0.33338 -0.12664,0.32102 -0.24378,0.63499 -0.20355,0.6209 -0.18238,0.61243 -0.14888,0.5789 -0.11783,0.55597 -0.11041,0.50695 -0.0773,0.47202 -0.0632,0.42793 -0.0473,0.37041 -0.0384,0.30515 -0.0159,0.23672 -0.0247,0.16827 -0.002,0.037 0.0571,0.96485 0.11924,0.99132 0.1718,0.96978 0.24376,0.93874 0.29846,0.90346 0.35419,0.8876 0.39299,0.865 0.45615,0.8368 0.47872,0.80503 0.0533,0.0783 0.48189,0.70769 0.55598,0.75424 0.58949,0.72635 0.60537,0.69111 0.62794,0.67379 0.64558,0.635 0.64383,0.60537 0.65969,0.5701 0.63676,0.52951 0.63676,0.50378 0.62795,0.47023 0.61242,0.42088 0.57362,0.40534 0.54398,0.35241 0.51047,0.31398 0.47872,0.28435 0.40887,0.2473 0.37535,0.20002 0.30693,0.17708 0.24411,0.12101 0.17357,0.0896 0.1016,0.0437 v 0.009 l -1.17405,2.51812 -0.004,0.008" />
      <path
         inkscape:connector-curvature="0"
         id="path102"
         style="fill:#c20c18;fill-opacity:1;fill-rule:nonzero;stroke:none;stroke-width:1.358729"
         d="m 95.091921,160.98713 h -2.79223 c 0.004,-2.6e-4 0.007,-2.6e-4 0.0109,-7.9e-4 v -9.86402 l 0.18203,-0.0413 0.24907,-0.042 0.0332,-0.005 -0.46391,-2.74778 h 2.78095 v 12.70105" />
      <path
         inkscape:connector-curvature="0"
         id="path104"
         style="fill:#c20c18;fill-opacity:1;fill-rule:nonzero;stroke:none;stroke-width:1.358729"
         d="m 91.557441,223.05628 -3.49074,-1.07738 -3.25261,-1.16629 -3.04729,-1.24566 -2.82963,-1.34374 -2.617259,-1.40687 -2.41935,-1.48097 -2.231327,-1.53493 -2.028116,-1.58397 -1.861256,-1.62984 -1.697916,-1.65063 -1.522947,-1.68241 -1.36842,-1.70003 -1.21743,-1.69264 -1.068215,-1.70532 -0.0141,-0.0254 -0.920758,-1.65698 -0.537273,-1.08904 -0.280461,-0.56868 -0.691097,-1.6263 -0.59654,-1.5875 -0.472022,-1.52822 -0.394753,-1.47708 -0.320683,-1.4016 -0.219422,-1.3402 -0.182385,-1.24213 -0.11607,-1.15428 -0.06314,-1.06117 -0.0314,-0.9458 v -0.82974 l 0.02294,-0.70695 0.01304,-0.30623 0.0113,-0.27093 0.03881,-0.43672 0.0314,-0.2826 0.0013,-0.0106 0.08855,-2.50084 0.0032,-0.09 0.299852,-2.70688 0.494599,-2.58937 0.659701,-2.45076 0.833263,-2.31738 0.966605,-2.19993 1.108784,-2.06306 1.233303,-1.94027 1.327859,-1.82104 1.413936,-1.69968 1.492953,-1.5808 1.556094,-1.45273 1.594565,-1.35924 1.633352,-1.24039 1.650651,-1.15251 1.658059,-1.04389 1.650643,-0.95601 1.626321,-0.87878 1.61924,-0.77752 1.56281,-0.70519 1.5,-0.62795 1.45451,-0.56127 1.35961,-0.48755 1.28728,-0.4124 1.17899,-0.36477 1.06151,-0.29843 0.93485,-0.25612 0.81069,-0.1965 0.65088,-0.14887 0.47871,-0.0949 0.31573,-0.0667 0.15629,-0.0265 0.4639,2.74673 0.4639,2.74779 -0.0332,0.005 -0.24906,0.042 -0.18203,0.0413 V 148.285 c 0,0 -33.347029,5.78731 -33.347029,34.55952 0,0 -3.857979,27.00374 33.347029,37.53133 v 2.6e-4 l -0.75319,2.6797 m 0.75319,-2.68005 v -2.91217 l 0.75388,0.2293 -0.75388,2.68287" />
      <path
         inkscape:connector-curvature="0"
         id="path106"
         style="fill:#c20c18;fill-opacity:1;fill-rule:nonzero;stroke:none;stroke-width:1.358729"
         d="m 119.31259,160.98537 h -2.77777 v -12.70105 h 2.782 v 12.68694 l -0.004,0.0141" />
      <path
         inkscape:connector-curvature="0"
         id="path108"
         style="fill:#c20c18;fill-opacity:1;fill-rule:nonzero;stroke:none;stroke-width:1.358729"
         d="m 131.39346,202.42548 -0.32279,-0.004 -0.2981,-0.0229 -0.26669,-0.0279 -0.21731,-0.037 -0.2159,-0.0106 -0.5581,-0.0579 -0.55775,-0.11571 -0.55597,-0.13688 -0.53516,-0.18414 -0.5193,-0.21238 -0.51046,-0.25435 -0.4946,-0.28398 -0.48613,-0.31397 -0.44909,-0.35278 -0.43144,-0.38242 -0.4265,-0.4191 -0.39124,-0.4491 -0.36124,-0.47023 -0.34749,-0.50342 -0.29633,-0.53517 -0.28434,-0.55457 -0.23495,-0.58031 -0.20531,-0.61596 -0.16299,-0.62089 -0.11219,-0.6491 -0.10019,-0.66852 -0.0243,-0.68226 0.008,-0.68792 0.0547,-0.70698 0.0945,-0.71894 0.14039,-0.72285 0.19651,-0.72814 0.25258,-0.74012 0.28963,-0.74401 0.3295,-0.7472 0.38594,-0.74575 0.0141,-0.0265 0.29315,-0.5507 0.28929,-0.57361 0.26669,-0.5648 0.26141,-0.56654 0.1457,-0.34645 0.0875,-0.20813 0.2212,-0.55774 0.20531,-0.53871 0.19615,-0.53304 0.17215,-0.51928 0.16475,-0.51435 0.14922,-0.49989 0.14217,-0.48578 0.11042,-0.47202 0.12453,-0.45613 0.10372,-0.43499 0.0839,-0.42967 0.079,-0.40006 0.079,-0.38946 0.0631,-0.36477 0.0473,-0.33338 0.0473,-0.31925 0.0459,-0.29493 0.0314,-0.26671 0.0335,-0.24376 0.0138,-0.21907 0.009,-0.18451 0.0229,-0.15416 0.009,-0.13335 v -0.0896 l 0.009,-0.0667 v -0.0173 l -0.009,0.0632 -0.0247,-0.78952 -0.0631,-0.75459 -0.12453,-0.69781 -0.15769,-0.67203 -0.18768,-0.63676 -0.14605,-0.38912 -0.0822,-0.21978 -0.25083,-0.58243 -0.28434,-0.54187 -0.32279,-0.53339 -0.32773,-0.49638 -0.36159,-0.48259 -0.3115,-0.36936 -0.0656,-0.078 -0.39477,-0.42439 -0.41556,-0.41593 -0.40711,-0.38593 -0.43145,-0.34888 -0.4265,-0.34751 -0.42439,-0.30868 -0.41594,-0.28256 -0.41557,-0.26495 -0.40181,-0.24553 -0.37712,-0.21413 -0.37042,-0.18767 -0.33654,-0.18064 -0.30727,-0.14921 -0.26635,-0.11395 -0.25118,-0.11394 -0.18768,-0.079 -0.15769,-0.0543 -0.10372,-0.0437 -0.037,-0.0116 0.85901,-2.64478 0.004,-0.0141 v 0.0148 c 0,0 10.76467,3.53132 10.76467,14.06067 0,0 -0.15805,6.26958 -3.85093,13.02032 -3.69958,6.75218 0.55809,11.49385 4.41572,11.49385 0,0 0.28116,0.0885 0.74719,0.0885 1.66229,0 5.67972,-1.12676 7.69267,-11.42118 l 0.38488,0.0748 2.34843,0.45827 -0.0984,0.46812 -0.16862,0.80187 -0.28928,1.19486 -0.2092,0.75775 -0.0977,0.3542 -0.33162,1.04387 -0.34571,0.97013 -0.3683,0.90348 -0.38594,0.85266 -0.39124,0.77011 -0.41557,0.72638 -0.43533,0.65932 -0.44556,0.6142 -0.46461,0.55774 -0.46319,0.50694 -0.47907,0.44733 -0.4946,0.40533 -0.50341,0.36161 -0.49494,0.30338 -0.48755,0.25436 -0.48613,0.21237 -0.4893,0.1718 -0.45438,0.13511 -0.43849,0.0892 -0.43534,0.0667 -0.39088,0.0318 -0.36159,0.004 m -0.74719,-0.0737 v 0 m -0.83326,-0.13511 v 0 m 12.00644,-13.4553 -2.34844,-0.45826 -0.38488,-0.0748 c 2.552,-13.09793 11.93342,-21.50885 12.05264,-21.61539 h 0.003 l 1.84256,2.06938 -0.054,0.0624 -0.11041,0.10196 -0.15628,0.1457 -0.19827,0.19297 -0.23495,0.23849 -0.26846,0.2755 -0.30338,0.33127 -0.34749,0.36511 -0.36126,0.41559 -0.39123,0.44732 -0.41061,0.49142 -0.44029,0.52282 -0.44026,0.57361 -0.45615,0.60149 -0.47024,0.65263 -0.42088,0.5775 -0.0649,0.0892 -0.48085,0.71932 -0.47871,0.75424 -0.48083,0.78246 -0.0212,0.0363 -0.45579,0.78104 -0.46496,0.85266 -0.45615,0.87562 -0.44732,0.90662 -0.42474,0.94404 -0.40852,0.96661 -0.40181,0.99273 -0.35948,1.02976 -0.33867,1.04916 -0.29845,1.07702 -0.28222,1.09116 -0.23672,1.13524 m 11.17283,-20.07096 -0.007,-0.008 2.6e-4,-7.9e-4 0.007,0.009 m -34.54012,-5.05566 -0.0247,-0.0123 0.0261,0.008 -0.001,0.005" />
      <path
         inkscape:connector-curvature="0"
         id="path110"
         style="fill:#c20c18;fill-opacity:1;fill-rule:nonzero;stroke:none;stroke-width:1.358729"
         d="m 153.9275,166.61287 h -2.78872 c 7.9e-4,-2.6e-4 0.001,-7.9e-4 0.001,-7.9e-4 v -3.31928 l 0.079,-0.0325 0.23317,-0.10514 0.22791,-0.10195 0.19824,-0.0981 0.18064,-0.0914 0.14921,-0.0822 0.14041,-0.079 0.11042,-0.0631 0.0861,-0.0543 0.0702,-0.0423 0.049,-0.0402 -1.52435,-2.32197 -7.9e-4,-7.9e-4 h 2.78835 v 6.43289" />
      <path
         inkscape:connector-curvature="0"
         id="path112"
         style="fill:#c20c18;fill-opacity:1;fill-rule:nonzero;stroke:none;stroke-width:1.358729"
         d="m 151.13984,163.2929 v -3.11222 l 1.52434,2.322 -0.049,0.0402 -0.0702,0.0423 -0.0861,0.0543 -0.11041,0.0632 -0.14041,0.079 -0.14924,0.0822 -0.18061,0.0914 -0.19826,0.0981 -0.2279,0.10195 -0.23319,0.10514 -0.079,0.0325 m -5.51816,-1.65311 c -1.01492,0 -2.13253,-0.13724 -3.32175,-0.496 0,0 -0.001,-8e-4 -0.003,-0.002 l 1.62031,-2.26517 -1.62031,2.26517 c -0.25895,-0.18574 -17.95782,-12.8568 -22.98031,-12.8568 v 2.78129 -5.55942 l 0.86324,0.0596 0.85091,0.14921 0.82267,0.21943 0.83327,0.28786 0.87205,0.32421 0.89642,0.38593 0.90346,0.41241 0.93487,0.46319 0.95778,0.49461 0.96697,0.52281 0.9839,0.55421 1.00365,0.56691 0.99801,0.58421 1.00012,0.60855 0.99625,0.61064 0.9913,0.61209 0.95603,0.61206 0.93662,0.59831 0.9264,0.59654 0.88935,0.58596 0.84738,0.56481 0.79304,0.53164 0.74718,0.51399 0.69991,0.47202 0.64382,0.44202 0.57362,0.38947 0.49494,0.3542 0.41558,0.29139 0.33866,0.23494 0.0699,0.0501 0.28435,0.0603 0.34571,0.0667 0.33868,0.0547 0.33689,0.0385 0.3228,0.0247 0.30515,0.0155 h 0.31398 l 0.29102,-0.0155 0.29142,-0.0282 0.28255,-0.0265 0.52601,-0.072 0.25259,-0.0579 0.25117,-0.0508 0.21908,-0.0561 0.21941,-0.0702 0.1965,-0.0667 0.19827,-0.0667 0.17886,-0.0667 0.18238,-0.0543 0.14041,-0.0684 0.14217,-0.0632 0.11748,-0.0579 0.11042,-0.0543 0.0861,-0.0473 0.079,-0.0406 0.0473,-0.0314 0.0455,-0.0229 0.0177,-0.0124 -0.0314,0.0282 1.52364,2.32094 7.9e-4,7.9e-4 c -0.012,0.008 -2.21933,1.4591 -5.51816,1.4591" />
      <path
         inkscape:connector-curvature="0"
         id="path114"
         style="fill:#c20c18;fill-opacity:1;fill-rule:nonzero;stroke:none;stroke-width:1.358729"
         d="m 95.264081,280.2486 h -2.78906 v -0.0272 l 0.4311,-2.72204 h 0.0176 l -0.0875,-0.0155 -0.14041,-0.0229 -0.22084,-0.0459 v -9.7056 c -7.9e-4,-2.7e-4 -7.9e-4,-2.7e-4 -10e-4,-2.7e-4 h 2.79047 v 12.53949 m -2.79012,0 h -0.003 v -2.6e-4 c 10e-4,0 0.002,2.6e-4 0.003,2.6e-4" />
      <path
         inkscape:connector-curvature="0"
         id="path116"
         style="fill:#c20c18;fill-opacity:1;fill-rule:nonzero;stroke:none;stroke-width:1.358729"
         d="m 92.036171,282.99215 -0.0949,-0.0155 -0.1418,-0.0247 -0.23532,-0.0455 -0.29809,-0.0632 -0.38594,-0.079 -0.44026,-0.11077 -0.53516,-0.14006 -0.5895,-0.16685 -0.67345,-0.19474 -0.74754,-0.22789 -0.80856,-0.25966 -0.88794,-0.3069 -0.95074,-0.3369 -1.02271,-0.37713 -1.09114,-0.42474 -1.1631,-0.47167 -1.2245,-0.51046 -1.30528,-0.57362 -1.36842,-0.62123 -1.42945,-0.67522 -1.492963,-0.72991 -1.579029,-0.79481 -1.634773,-0.84032 -1.689452,-0.92073 -1.759659,-0.98955 -1.831263,-1.04564 -1.868318,-1.11407 -1.956141,-1.1945 -2.021065,-1.26472 -2.073278,-1.33526 -2.138545,-1.4157 -1.552577,-1.0689 0.744725,0.0554 0.195432,-2.78061 h 2.64e-4 c 23.218422,16.0641 36.217932,18.27707 36.484982,18.32118 v 2.6e-4 l -0.43462,2.74355 m 0.43884,-2.77071 v -2.80635 l 0.22085,0.0459 0.14041,0.0229 0.0875,0.0155 h -0.0177 l -0.4311,2.72203" />
      <path
         inkscape:connector-curvature="0"
         id="path118"
         style="fill:#c20c18;fill-opacity:1;fill-rule:nonzero;stroke:none;stroke-width:1.358729"
         d="m 55.790012,264.70768 -8.76265,-0.65087 -1.994602,-0.14393 -0.502007,-1.94699 -1.689097,-6.5927 2.698046,-0.68439 v 0.001 c -0.0028,2.7e-4 -0.0042,2.7e-4 -0.0042,2.7e-4 l 0.0095,0.0363 0.376417,2.72096 0.115713,-0.0159 0.149225,-0.0243 0.04268,-0.0113 0.995894,3.88514 8.760524,0.64559 -0.195432,2.78059 m -8.762651,-0.65088 v 0" />
      <path
         inkscape:connector-curvature="0"
         id="path120"
         style="fill:#c20c18;fill-opacity:1;fill-rule:nonzero;stroke:none;stroke-width:1.358729"
         d="m 92.471481,267.70876 c -12.1366,-1.6824 -17.360538,-10.84263 -17.360538,-10.84263 9.962788,-9.64882 10.771358,-22.99193 10.771358,-22.99193 0,-9.48337 -8.76088,-9.48337 -8.76088,-9.48337 0,0 -0.0755,-0.0106 -0.21943,-0.0106 -1.106306,0 -6.244171,0.62653 -12.076998,11.50408 l -2.450039,-1.30528 2.450039,1.30528 c -2.64e-4,7.9e-4 -7.93e-4,0.001 -0.0011,0.002 -9.292857,17.23531 -19.05317,18.76954 -19.284236,18.80377 v -0.001 l -0.381351,-2.75624 -0.06315,0.007 0.02434,-0.007 0.07021,-0.009 0.110416,-0.0229 0.180975,-0.0473 0.210254,-0.0632 0.261408,-0.0861 0.305506,-0.10337 0.345369,-0.13334 0.392994,-0.16511 0.417687,-0.2032 0.463203,-0.23706 0.494591,-0.26671 0.5334,-0.30691 0.564795,-0.34537 0.606777,-0.40005 0.621245,-0.44908 0.652639,-0.49495 0.689327,-0.55774 0.478018,-0.42757 0.206015,-0.18451 0.738727,-0.67556 0.740124,-0.73131 0.768345,-0.80187 0.770472,-0.87206 0.801513,-0.94192 0.810329,-1.00506 0.808921,-1.09326 0.831493,-1.17863 0.835027,-1.25801 0.856192,-1.33844 0.840314,-1.44709 0.84913,-1.51942 v 0.0123 l 0.64348,-1.18252 0.583134,-1.00047 0.06103,-0.10477 0.645575,-1.03681 0.635003,-0.96133 0.208838,-0.2995 0.419106,-0.60185 0.636764,-0.83715 0.621245,-0.77009 0.61383,-0.72602 0.612066,-0.65618 0.596551,-0.61595 0.582438,-0.56302 0.580668,-0.50165 0.573619,-0.45969 0.558094,-0.42438 0.541861,-0.37359 0.542227,-0.33338 0.510465,-0.28611 0.503415,-0.2561 0.486122,-0.22473 0.4558,-0.18061 0.44908,-0.15594 0.415928,-0.12628 0.401807,-0.10196 0.368302,-0.0751 0.345726,-0.0582 0.322797,-0.0367 0.282208,-0.0194 0.25965,-0.007 h 0.19473 l 0.0949,0.004 v -0.004 0.004 l 0.0363,0.001 0.0423,0.006 0.0688,0.002 -0.0716,-0.006 0.0187,7.9e-4 0.0653,0.006 0.0526,10e-4 0.15768,0.005 0.22791,0.0123 0.25293,0.0261 0.3034,0.0353 0.33161,0.0402 0.37006,0.0702 0.4071,0.0702 0.43322,0.10195 0.46319,0.11923 0.47167,0.14888 0.50377,0.17744 0.51047,0.2032 0.52457,0.23531 0.53481,0.26493 0.54398,0.31398 0.54011,0.36124 0.54398,0.39653 0.51753,0.44731 0.52811,0.4999 0.48577,0.54221 0.4632,0.60007 0.44026,0.65582 0.393,0.69674 0.35278,0.75071 0.31397,0.80504 0.24554,0.8403 0.20355,0.90348 0.14887,0.92816 0.0949,0.98072 0.0296,1.01529 2.7e-4,-0.008 v 0.0194 l -0.007,0.16474 -0.009,0.0825 -0.007,0.13336 -0.0229,0.21942 -0.0314,0.28751 -0.0318,0.36513 -0.0614,0.41205 -0.0649,0.48788 -0.0928,0.52953 -0.10372,0.59478 -0.10866,0.64734 -0.14923,0.6911 -0.1665,0.75107 -0.18944,0.77892 -0.2265,0.81563 -0.22682,0.83502 -0.008,0.0296 -0.28257,0.88795 -0.29986,0.93486 -0.28399,0.81315 -0.0459,0.13088 -0.38417,0.98037 -0.40182,0.9913 -0.45614,1.01212 -0.48578,1.0227 -0.52634,1.0527 -0.57361,1.04563 -0.62266,1.05938 -0.66674,1.0527 -0.7158,1.05445 -0.76834,1.04528 -0.81033,1.04387 -0.87913,1.02093 -0.24059,0.26318 0.1143,0.13864 0.29139,0.35278 0.32808,0.35419 0.36302,0.393 0.38417,0.39298 0.42439,0.41558 0.45614,0.40887 0.49494,0.41593 0.20639,0.16615 0.31291,0.25118 0.54187,0.42475 0.58949,0.41557 0.61242,0.40887 0.64382,0.39299 0.68404,0.40005 0.71401,0.36125 0.74719,0.35419 0.78599,0.3369 0.80892,0.32279 0.84173,0.27552 0.89641,0.26669 0.92639,0.23496 0.95779,0.19826 1.00542,0.15629 -0.38065,2.75765 m -14.94191,-12.22446 0.002,0.003 2.7e-4,-0.004 -0.002,0.001 m -0.0134,-0.0257 0.0134,0.0257 0.002,-0.001 -0.0155,-0.0247 m -0.0177,-33.82433 v 0 m -31.577133,35.81365 -0.376415,-2.72098 0.68404,2.66947 -0.04269,0.0113 -0.149225,0.0243 -0.115712,0.0159 m 31.275865,-35.83905 -0.0395,-10e-4 -0.0363,-0.005 0.0758,0.006" />
      <path
         inkscape:connector-curvature="0"
         id="path122"
         style="fill:#ffffff;fill-opacity:1;fill-rule:nonzero;stroke:none;stroke-width:1.358729"
         d="M 119.31718,280.40594 V 267.7084 c 18.72368,0 17.03423,-18.64429 17.03423,-18.64429 0,-13.01504 -17.11325,-20.09175 -17.11325,-20.09175 v -21.93749 c 41.76396,12.03501 37.28191,37.11998 37.20606,37.52955 -8e-4,0.004 -0.001,0.005 -0.001,0.005 0.16506,33.58903 -37.12603,35.83622 -37.12603,35.83622" />
      <path
         inkscape:connector-curvature="0"
         id="path124"
         style="fill:#ffffff;fill-opacity:1;fill-rule:nonzero;stroke:none;stroke-width:1.358729"
         d="M 92.310621,220.37622 C 55.10563,209.84863 58.963602,182.84488 58.963602,182.84488 c 0,-28.7722 33.347019,-34.55951 33.347019,-34.55951 v 12.70105 c -0.004,2.7e-4 -0.007,2.7e-4 -0.0109,8e-4 -14.61417,0.72566 -15.24952,16.37135 -15.25657,16.55303 0,0.001 0,0.001 0,0.001 0.15769,13.25916 15.26751,20.33059 15.26751,20.33059 v 22.50405" />
      <path
         inkscape:connector-curvature="0"
         id="path126"
         style="fill:#ffffff;fill-opacity:1;fill-rule:nonzero;stroke:none;stroke-width:1.358729"
         d="m 131.39346,199.64947 c -0.46602,0 -0.74718,-0.0885 -0.74718,-0.0885 -3.85763,0 -8.1153,-4.7417 -4.41572,-11.49385 3.69288,-6.75078 3.85093,-13.02033 3.85093,-13.02033 0,-10.52936 -10.76467,-14.06067 -10.76467,-14.06067 V 148.285 c 5.0225,0 22.72136,12.67108 22.9803,12.85665 0.002,0.001 0.003,0.002 0.003,0.002 1.18922,0.35877 2.30682,0.496 3.32176,0.496 3.29883,0 5.50614,-1.45096 5.51814,-1.45908 v 6.43149 c 0,0 -2.6e-4,2.7e-4 -0.001,8e-4 -0.11922,0.10654 -9.50065,8.51749 -12.05264,21.6154 -2.01295,10.29443 -6.03038,11.4212 -7.69268,11.4212" />
      <path
         inkscape:connector-curvature="0"
         id="path128"
         style="fill:#ffffff;fill-opacity:1;fill-rule:nonzero;stroke:none;stroke-width:1.358729"
         d="m 92.475021,280.24895 c 0,0 -2.7e-4,0 -0.001,-2.7e-4 -8e-4,0 -0.002,-2.6e-4 -0.003,-2.6e-4 -0.26706,-0.0441 -13.26656,-2.25706 -36.484972,-18.32115 h -2.64e-4 l -8.760534,-0.64558 -0.995887,-3.88514 -0.684038,-2.66948 -0.0095,-0.0363 c 0,0 0.0013,0 0.0042,-2.7e-4 0.231071,-0.0342 9.991375,-1.56846 19.284235,-18.80377 2.65e-4,-7.9e-4 7.94e-4,-0.001 0.0011,-0.002 5.832827,-10.87755 10.970678,-11.50409 12.07698,-11.50409 0.14394,0 0.21944,0.0106 0.21944,0.0106 0,0 8.76089,0 8.76089,9.48337 0,0 -0.80858,13.34311 -10.771374,22.99193 0,0 5.223934,9.16024 17.360544,10.84263 7.9e-4,0 0.001,2.7e-4 0.002,2.7e-4 7.9e-4,0 7.9e-4,0 0.001,2.6e-4 v 12.53949" />
    </g>
  </g>
</svg>
